<svg xmlns="http://www.w3.org/2000/svg" width="220" height="260" viewBox="0 0 220 260">
  <g fill="none" stroke="#343434" stroke-width="4" stroke-linecap="round" stroke-linejoin="round">
    <ellipse cx="110" cy="44" rx="22" ry="28" fill="#fff"/>
    <path d="M86 38 C91 19 120 11 137 31 C139 43 131 51 121 54 C121 44 112 38 99 39 C94 41 90 41 86 38Z" fill="#171717"/>
    <path d="M78 78 C88 61 101 58 110 60 C124 59 138 64 148 82 C158 103 152 126 135 141 C121 154 98 153 84 140 C67 124 67 98 78 78Z" fill="#fff"/>
    <path d="M72 91 C58 97 50 116 49 139"/>
    <path d="M49 139 C48 159 57 174 73 184"/>
    <path d="M148 91 C164 96 174 112 177 135"/>
    <path d="M177 135 C179 156 169 174 153 184"/>
    <ellipse cx="73" cy="188" rx="10" ry="8" fill="#fff"/>
    <ellipse cx="153" cy="188" rx="10" ry="8" fill="#fff"/>
    <path d="M88 138 C100 149 121 150 132 139 L139 164 C127 178 92 177 81 164Z" fill="#111"/>
    <path d="M91 166 C83 185 78 205 78 225"/>
    <path d="M129 166 C139 185 146 204 149 224"/>
    <ellipse cx="75" cy="232" rx="11" ry="19" fill="#111"/>
    <ellipse cx="152" cy="231" rx="11" ry="19" fill="#111"/>
    <path d="M93 89 C100 97 119 97 127 88" stroke="#777" stroke-width="2"/>
    <path d="M110 62 L110 126" stroke="#777" stroke-width="2"/>
    <path d="M88 116 C101 126 123 125 134 115" stroke="#777" stroke-width="2"/>
    <path d="M81 164 C95 173 126 174 140 164" stroke="#777" stroke-width="2"/>
  </g>
</svg>
