<svg xmlns="http://www.w3.org/2000/svg" width="220" height="260" viewBox="0 0 220 260">
  <g fill="none" stroke="#343434" stroke-width="4" stroke-linecap="round" stroke-linejoin="round">
    <ellipse cx="110" cy="42" rx="23" ry="28" fill="#fff"/>
    <path d="M86 34 C91 13 127 10 137 32 C130 25 121 25 110 27 C99 25 92 27 86 34Z" fill="#f2cf45"/>
    <path d="M81 75 C91 59 101 57 110 58 C122 57 134 61 143 76 C153 94 151 119 136 137 C124 151 96 151 84 137 C69 119 70 94 81 75Z" fill="#fff"/>
    <path d="M72 86 C57 90 48 108 45 131"/>
    <path d="M45 131 C41 151 48 169 61 183"/>
    <path d="M148 86 C163 90 172 108 175 131"/>
    <path d="M175 131 C179 151 172 169 159 183"/>
    <ellipse cx="59" cy="188" rx="10" ry="8" fill="#fff"/>
    <ellipse cx="161" cy="188" rx="10" ry="8" fill="#fff"/>
    <path d="M91 137 C98 145 122 145 129 137 L137 164 C127 177 93 177 83 164Z" fill="#f2cf45"/>
    <path d="M91 166 C84 184 77 204 76 224"/>
    <path d="M129 166 C137 185 143 205 144 225"/>
    <ellipse cx="73" cy="232" rx="11" ry="19" fill="#fff"/>
    <ellipse cx="147" cy="232" rx="11" ry="19" fill="#fff"/>
    <path d="M95 87 C101 94 119 94 126 87" stroke="#777" stroke-width="2"/>
    <path d="M110 62 L110 126" stroke="#777" stroke-width="2"/>
    <path d="M89 116 C99 123 121 123 132 116" stroke="#777" stroke-width="2"/>
    <path d="M79 165 C93 173 127 173 141 165" stroke="#777" stroke-width="2"/>
  </g>
</svg>
