<svg xmlns="http://www.w3.org/2000/svg" viewBox="0 0 512 512"><title>Girlfriend grounded true top down 8 FPS sprite sheet</title><style>.skin{fill:#5a342b;stroke:#10151d;stroke-width:1.8}.hair{fill:#121018;stroke:#10151d;stroke-width:2.2;stroke-linejoin:round}.hairStroke{fill:none;stroke:#121018;stroke-width:6.5;stroke-linecap:round}.top{fill:#2b1c32;stroke:#10151d;stroke-width:2.6;stroke-linejoin:round}.pants{fill:#15171d;stroke:#10151d;stroke-width:2.2;stroke-linejoin:round}.shoe{fill:#090b10;stroke:#10151d;stroke-width:2}.arm{fill:none;stroke:#2b1c32;stroke-width:10;stroke-linecap:round}.accentLine{fill:none;stroke:#e25aa9;stroke-width:3;stroke-linecap:round}.softLine{fill:none;stroke:#fff;stroke-opacity:.16;stroke-width:2}.face{fill:none;stroke:#2a1715;stroke-width:1.6;stroke-linecap:round}.mouth{fill:none;stroke:#7b403b;stroke-width:1.4;stroke-linecap:round}</style><defs><g id="bf0"><path d="M52 76C50 88 45 99 46 111H55C60 98 60 88 61 78Z" class="pants"/><path d="M67 76C68 88 72 99 72 111H81C76 98 75 88 75 78Z" class="pants"/><path d="M44 108Q50 104 57 109V116H44Z" class="shoe"/><path d="M70 109Q76 104 83 109V116H70Z" class="shoe"/><path d="M43 52C36 61 29 74 32 87" class="arm"/><circle cx="32" cy="88" r="5.2" class="skin"/><path d="M85 52C92 61 99 74 96 87" class="arm"/><circle cx="96" cy="88" r="5.2" class="skin"/><path d="M43 48Q64 42 85 48L85 79Q64 85 43 79Z" class="top"/><path d="M47 54Q64 49 81 54" class="accentLine"/><path d="M51 67Q64 72 77 67" class="softLine"/><path d="M58 40h12v11q-6 6-12 0Z" class="skin"/></g><g id="bs0"><path d="M54 76C52 89 54 101 55 112H61C62 99 63 88 64 78Z" class="pants"/><path d="M67 76C69 89 67 101 66 112H80C79 99 78 88 77 78Z" class="pants"/><path d="M52 109H67L68 116H53Z" class="shoe"/><path d="M64 109H79V116H64Z" class="shoe"/><path d="M56 51C56 61 54 76 57 89" class="arm"/><circle cx="57" cy="89" r="5" class="skin"/><path d="M47 49Q64 42 82 50L78 80Q64 85 48 79Z" class="top"/><path d="M50 55Q64 50 78 55" class="accentLine"/><path d="M78 52C78 62 80 76 77 89" class="arm"/><circle cx="77" cy="89" r="5.2" class="skin"/><path d="M60 40h12v11q-6 6-12 0Z" class="skin"/></g><g id="bf1" transform="translate(0 1)"><use href="#bf0"/><path d="M43 52C38 61 35 74 38 87" class="arm"/><path d="M85 52C90 61 93 74 90 87" class="arm"/></g><g id="bs1" transform="translate(0 1)"><use href="#bs0"/><path d="M56 51C52 61 50 76 53 89" class="arm"/><path d="M78 52C82 62 84 76 81 89" class="arm"/></g><g id="bf2"><use href="#bf0"/><path d="M43 52C39 62 42 75 45 87" class="arm"/><path d="M85 52C89 62 86 75 83 87" class="arm"/></g><g id="bs2"><use href="#bs0"/><path d="M56 51C44 61 42 76 45 89" class="arm"/><path d="M78 52C90 62 92 76 89 89" class="arm"/></g><g id="bf3" transform="translate(0 1)"><use href="#bf0"/><path d="M43 52C36 61 37 74 40 87" class="arm"/><path d="M85 52C92 61 91 74 88 87" class="arm"/></g><g id="bs3" transform="translate(0 1)"><use href="#bs0"/><path d="M56 51C48 61 46 76 49 89" class="arm"/><path d="M78 52C86 62 88 76 85 89" class="arm"/></g><g id="hs"><ellipse cx="64" cy="31" rx="16" ry="18" class="skin"/><path d="M48 30C47 15 55 10 65 10C78 10 82 20 80 34C75 25 55 22 48 30Z" class="hair"/><path d="M48 28C44 40 47 50 53 55M80 28C84 40 81 50 75 55" class="hairStroke"/><path d="M56 34Q60 32 62 34M66 34Q70 32 72 34" class="face"/><path d="M60 41Q64 43 68 41" class="mouth"/></g><g id="hn"><ellipse cx="64" cy="31" rx="16" ry="18" class="skin"/><path d="M47 31C45 15 54 8 65 8C78 9 83 20 81 37Q64 45 47 31Z" class="hair"/><path d="M49 30C45 42 48 51 54 57M79 30C83 42 80 51 74 57" class="hairStroke"/></g><g id="he"><ellipse cx="69" cy="31" rx="15" ry="18" class="skin"/><path d="M53 30C54 14 64 8 74 10C85 13 87 24 83 38C72 28 62 24 53 30Z" class="hair"/><path d="M59 31C54 43 60 52 65 57" class="hairStroke"/><path d="M76 34Q79 32 81 34M79 42Q82 43 84 41" class="face"/></g></defs><g transform="translate(0 0)"><use href="#bf0"/><use href="#hs"/></g><g transform="translate(128 0)"><use href="#bf1"/><use href="#hs"/></g><g transform="translate(256 0)"><use href="#bf2"/><use href="#hs"/></g><g transform="translate(384 0)"><use href="#bf3"/><use href="#hs"/></g><g transform="translate(0 128)"><g transform="translate(128 0) scale(-1 1)"><use href="#bs0"/><use href="#he"/></g></g><g transform="translate(128 128)"><g transform="translate(128 0) scale(-1 1)"><use href="#bs1"/><use href="#he"/></g></g><g transform="translate(256 128)"><g transform="translate(128 0) scale(-1 1)"><use href="#bs2"/><use href="#he"/></g></g><g transform="translate(384 128)"><g transform="translate(128 0) scale(-1 1)"><use href="#bs3"/><use href="#he"/></g></g><g transform="translate(0 256)"><use href="#bs0"/><use href="#he"/></g><g transform="translate(128 256)"><use href="#bs1"/><use href="#he"/></g><g transform="translate(256 256)"><use href="#bs2"/><use href="#he"/></g><g transform="translate(384 256)"><use href="#bs3"/><use href="#he"/></g><g transform="translate(0 384)"><use href="#bf0"/><use href="#hn"/></g><g transform="translate(128 384)"><use href="#bf1"/><use href="#hn"/></g><g transform="translate(256 384)"><use href="#bf2"/><use href="#hn"/></g><g transform="translate(384 384)"><use href="#bf3"/><use href="#hn"/></g></svg>