<svg xmlns="http://www.w3.org/2000/svg" viewBox="0 0 512 512"><title>Resident grounded anime true top down 8 FPS sprite sheet</title>
<style>.skin{fill:#5a342b;stroke:#0d1218;stroke-width:2}.hair{fill:#111014;stroke:#0d1218;stroke-width:2.4;stroke-linejoin:round}.top{fill:#172433;stroke:#0d1218;stroke-width:2.5;stroke-linejoin:round}.pants{fill:#171a21;stroke:#0d1218;stroke-width:2.2;stroke-linejoin:round}.shoe{fill:#090c11;stroke:#0d1218;stroke-width:2}.arm{fill:none;stroke:#172433;stroke-width:11;stroke-linecap:round}.accent{fill:none;stroke:#5fc8dd;stroke-width:3;stroke-linecap:round}.highlight{fill:none;stroke:#fff;stroke-opacity:.18;stroke-width:2;stroke-linecap:round}.face{fill:none;stroke:#2b1714;stroke-width:1.5;stroke-linecap:round}</style><defs><g id="f0">
<ellipse cx="64" cy="112" rx="24" ry="8" fill="#05080d" opacity=".18"/>
<path d="M54 76Q52 92 55 109Q55 113 62 108L65 80Z" class="pants"/><path d="M74 76Q76 92 73 109Q73 113 66 108L63 80Z" class="pants"/><path d="M51 106Q52 102 66 109L60 117H50Z" class="shoe"/><path d="M62 109Q76 102 78 106L85 117H69Z" class="shoe"/>
<path d="M45 51Q44 69 45 89" class="arm"/><circle cx="45" cy="90" r="5" class="skin"/><path d="M83 51Q84 69 83 89" class="arm"/><circle cx="83" cy="90" r="5" class="skin"/>
<path d="M43 47Q64 40 85 47L82 79Q64 86 44 79Z" class="top"/><path d="M49 55Q64 50 79 55" class="accent"/><path d="M51 69Q64 73 77 69" class="highlight"/><path d="M58 39H70V50Q64 56 58 50Z" class="skin"/><ellipse cx="64" cy="27" rx="18" ry="19" class="skin"/><path d="M46 26Q48 8 65 8Q82 10 82 30Q71 21 55 22Z" class="hair"/><path d="M55 30Q59 28 62 30M67 30Q71 28 74 30M59 39Q64 42 69 39" class="face"/></g>
<g id="f1"><ellipse cx="64" cy="112" rx="24" ry="8" fill="#05080d" opacity=".18"/><path d="M54 76Q52 92 51.1 109Q55 113 62 108L65 80Z" class="pants"/><path d="M74 76Q76 92 76.9 109Q73 113 66 108L63 80Z" class="pants"/><path d="M47.1 106Q52 102 62.1 109L60 117H46.1Z" class="shoe"/><path d="M65.9 109Q76 102 81.9 106L85 117H69Z" class="shoe"/><path d="M45 51Q38.8 69 39.8 89" class="arm"/><circle cx="39.8" cy="90" r="5" class="skin"/><path d="M83 51Q89.2 69 88.2 89" class="arm"/><circle cx="88.2" cy="90" r="5" class="skin"/><path d="M43 47Q64 40 85 47L82 79Q64 86 44 79Z" class="top"/><path d="M49 55Q64 50 79 55" class="accent"/><path d="M51 69Q64 73 77 69" class="highlight"/><path d="M58 39H70V50Q64 56 58 50Z" class="skin"/><ellipse cx="64" cy="27" rx="18" ry="19" class="skin"/><path d="M46 26Q48 8 65 8Q82 10 82 30Q71 21 55 22Z" class="hair"/><path d="M55 30Q59 28 62 30M67 30Q71 28 74 30M59 39Q64 42 69 39" class="face"/></g>
<g id="f2"><ellipse cx="64" cy="112" rx="24" ry="8" fill="#05080d" opacity=".18"/><path d="M54 76Q52 92 43 109Q55 113 62 108L65 80Z" class="pants"/><path d="M74 76Q76 92 85 109Q73 113 66 108L63 80Z" class="pants"/><path d="M39 106Q52 102 54 109L60 117H38Z" class="shoe"/><path d="M74 109Q76 102 90 106L85 117H69Z" class="shoe"/><path d="M45 51Q28 69 29 89" class="arm"/><circle cx="29" cy="90" r="5" class="skin"/><path d="M83 51Q100 69 99 89" class="arm"/><circle cx="99" cy="90" r="5" class="skin"/><path d="M43 47Q64 40 85 47L82 79Q64 86 44 79Z" class="top"/><path d="M49 55Q64 50 79 55" class="accent"/><path d="M51 69Q64 73 77 69" class="highlight"/><path d="M58 39H70V50Q64 56 58 50Z" class="skin"/><ellipse cx="64" cy="27" rx="18" ry="19" class="skin"/><path d="M46 26Q48 8 65 8Q82 10 82 30Q71 21 55 22Z" class="hair"/><path d="M55 30Q59 28 62 30M67 30Q71 28 74 30M59 39Q64 42 69 39" class="face"/></g>
<g id="f3"><ellipse cx="64" cy="112" rx="24" ry="8" fill="#05080d" opacity=".18"/><path d="M54 76Q52 92 46.9 109Q55 113 62 108L65 80Z" class="pants"/><path d="M74 76Q76 92 81.1 109Q73 113 66 108L63 80Z" class="pants"/><path d="M42.9 106Q52 102 57.9 109L60 117H41.9Z" class="shoe"/><path d="M70.1 109Q76 102 86.1 106L85 117H69Z" class="shoe"/><path d="M45 51Q33.2 69 34.2 89" class="arm"/><circle cx="34.2" cy="90" r="5" class="skin"/><path d="M83 51Q94.8 69 93.8 89" class="arm"/><circle cx="93.8" cy="90" r="5" class="skin"/><path d="M43 47Q64 40 85 47L82 79Q64 86 44 79Z" class="top"/><path d="M49 55Q64 50 79 55" class="accent"/><path d="M51 69Q64 73 77 69" class="highlight"/><path d="M58 39H70V50Q64 56 58 50Z" class="skin"/><ellipse cx="64" cy="27" rx="18" ry="19" class="skin"/><path d="M46 26Q48 8 65 8Q82 10 82 30Q71 21 55 22Z" class="hair"/><path d="M55 30Q59 28 62 30M67 30Q71 28 74 30M59 39Q64 42 69 39" class="face"/></g></defs>
<g transform="translate(0 0)"><use href="#f0"/></g><g transform="translate(128 0)"><use href="#f1"/></g><g transform="translate(256 0)"><use href="#f2"/></g><g transform="translate(384 0)"><use href="#f3"/></g>
<g transform="translate(0 128) rotate(90 64 64)"><use href="#f0"/></g><g transform="translate(128 128) rotate(90 64 64)"><use href="#f1"/></g><g transform="translate(256 128) rotate(90 64 64)"><use href="#f2"/></g><g transform="translate(384 128) rotate(90 64 64)"><use href="#f3"/></g>
<g transform="translate(0 256) rotate(-90 64 64)"><use href="#f0"/></g><g transform="translate(128 256) rotate(-90 64 64)"><use href="#f1"/></g><g transform="translate(256 256) rotate(-90 64 64)"><use href="#f2"/></g><g transform="translate(384 256) rotate(-90 64 64)"><use href="#f3"/></g>
<g transform="translate(0 384) rotate(180 64 64)"><use href="#f0"/></g><g transform="translate(128 384) rotate(180 64 64)"><use href="#f1"/></g><g transform="translate(256 384) rotate(180 64 64)"><use href="#f2"/></g><g transform="translate(384 384) rotate(180 64 64)"><use href="#f3"/></g></svg>