<svg xmlns="http://www.w3.org/2000/svg" viewBox="0 0 128 128"><title>Top down arcade cabinet</title>
<defs>
  <linearGradient id="metal" x1="0" y1="0" x2="1" y2="1"><stop stop-color="#dbe5ee"/><stop offset=".48" stop-color="#7f90a3"/><stop offset="1" stop-color="#354352"/></linearGradient>
  <linearGradient id="darkMetal" x1="0" y1="0" x2="0" y2="1"><stop stop-color="#344252"/><stop offset="1" stop-color="#101820"/></linearGradient>
  <linearGradient id="wood" x1="0" y1="0" x2="1" y2="1"><stop stop-color="#8b684b"/><stop offset=".55" stop-color="#5e4434"/><stop offset="1" stop-color="#2b2425"/></linearGradient>
  <linearGradient id="fabric" x1="0" y1="0" x2="0" y2="1"><stop stop-color="#536984"/><stop offset="1" stop-color="#1d2b3a"/></linearGradient>
  <linearGradient id="water" x1="0" y1="0" x2="1" y2="1"><stop stop-color="#9fe9ef"/><stop offset=".55" stop-color="#3188a0"/><stop offset="1" stop-color="#153e5e"/></linearGradient>
  <linearGradient id="screen" x1="0" y1="0" x2="1" y2="1"><stop stop-color="#b2f7ff"/><stop offset=".4" stop-color="#41a9cf"/><stop offset="1" stop-color="#102840"/></linearGradient>
  <filter id="shadow"><feDropShadow dx="0" dy="4" stdDeviation="3" flood-color="#05080d" flood-opacity=".55"/></filter>
</defs><g filter="url(#shadow)"><path d="M28 18H95L105 91Q102 110 86 113H42Q25 108 23 91Z" fill="#202a36"/><rect x="35" y="27" width="53" height="35" rx="5" fill="url(#screen)"/><rect x="34" y="68" width="57" height="22" rx="5" fill="#111820"/><circle cx="49" cy="79" r="5" fill="#d14c55"/><circle cx="76" cy="76" r="3" fill="#f1c66a"/><circle cx="84" cy="82" r="3" fill="#74e6ff"/><path d="M34 99H93" stroke="#4d6278" stroke-width="5"/></g></svg>
