<svg xmlns="http://www.w3.org/2000/svg" viewBox="0 0 128 128"><title>Top down ATV</title>
<defs>
  <linearGradient id="metal" x1="0" y1="0" x2="1" y2="1"><stop stop-color="#dbe5ee"/><stop offset=".48" stop-color="#7f90a3"/><stop offset="1" stop-color="#354352"/></linearGradient>
  <linearGradient id="darkMetal" x1="0" y1="0" x2="0" y2="1"><stop stop-color="#344252"/><stop offset="1" stop-color="#101820"/></linearGradient>
  <linearGradient id="wood" x1="0" y1="0" x2="1" y2="1"><stop stop-color="#8b684b"/><stop offset=".55" stop-color="#5e4434"/><stop offset="1" stop-color="#2b2425"/></linearGradient>
  <linearGradient id="fabric" x1="0" y1="0" x2="0" y2="1"><stop stop-color="#536984"/><stop offset="1" stop-color="#1d2b3a"/></linearGradient>
  <linearGradient id="water" x1="0" y1="0" x2="1" y2="1"><stop stop-color="#9fe9ef"/><stop offset=".55" stop-color="#3188a0"/><stop offset="1" stop-color="#153e5e"/></linearGradient>
  <linearGradient id="screen" x1="0" y1="0" x2="1" y2="1"><stop stop-color="#b2f7ff"/><stop offset=".4" stop-color="#41a9cf"/><stop offset="1" stop-color="#102840"/></linearGradient>
  <filter id="shadow"><feDropShadow dx="0" dy="4" stdDeviation="3" flood-color="#05080d" flood-opacity=".55"/></filter>
</defs><g filter="url(#shadow)"><rect x="34" y="20" width="60" height="88" rx="18" fill="#3a4f62"/><rect x="44" y="42" width="40" height="39" rx="10" fill="#18212a"/><path d="M41 28H87M42 98H86" stroke="#a3b0b8" stroke-width="5"/><g fill="#111820"><rect x="14" y="25" width="25" height="34" rx="10"/><rect x="89" y="25" width="25" height="34" rx="10"/><rect x="14" y="73" width="25" height="34" rx="10"/><rect x="89" y="73" width="25" height="34" rx="10"/></g><path d="M45 18L32 9M83 18L96 9" stroke="#d7c079" stroke-width="4"/></g></svg>
