<svg xmlns="http://www.w3.org/2000/svg" viewBox="0 0 128 128"><title>Top down book library</title>
<defs>
  <linearGradient id="metal" x1="0" y1="0" x2="1" y2="1"><stop stop-color="#dbe5ee"/><stop offset=".48" stop-color="#7f90a3"/><stop offset="1" stop-color="#354352"/></linearGradient>
  <linearGradient id="darkMetal" x1="0" y1="0" x2="0" y2="1"><stop stop-color="#344252"/><stop offset="1" stop-color="#101820"/></linearGradient>
  <linearGradient id="wood" x1="0" y1="0" x2="1" y2="1"><stop stop-color="#8b684b"/><stop offset=".55" stop-color="#5e4434"/><stop offset="1" stop-color="#2b2425"/></linearGradient>
  <linearGradient id="fabric" x1="0" y1="0" x2="0" y2="1"><stop stop-color="#536984"/><stop offset="1" stop-color="#1d2b3a"/></linearGradient>
  <linearGradient id="water" x1="0" y1="0" x2="1" y2="1"><stop stop-color="#9fe9ef"/><stop offset=".55" stop-color="#3188a0"/><stop offset="1" stop-color="#153e5e"/></linearGradient>
  <linearGradient id="screen" x1="0" y1="0" x2="1" y2="1"><stop stop-color="#b2f7ff"/><stop offset=".4" stop-color="#41a9cf"/><stop offset="1" stop-color="#102840"/></linearGradient>
  <filter id="shadow"><feDropShadow dx="0" dy="4" stdDeviation="3" flood-color="#05080d" flood-opacity=".55"/></filter>
</defs><g filter="url(#shadow)">
  <rect x="17" y="12" width="94" height="104" rx="8" fill="url(#wood)"/>
  <rect x="24" y="20" width="80" height="88" rx="5" fill="#221d20"/>
  <g><path d="M28 29H100M28 54H100M28 79H100M28 103H100" stroke="#b38a63" stroke-width="4"/></g>
  <g stroke-width="5"><path d="M31 24V49M40 27V49M49 22V49M58 25V49M69 21V49M80 27V49M91 23V49" stroke="#738ca7"/><path d="M32 58V74M43 58V74M54 58V74M65 58V74M76 58V74M88 58V74M97 58V74" stroke="#b46556"/><path d="M31 83V99M43 83V99M57 83V99M68 83V99M82 83V99M96 83V99" stroke="#c9b36c"/></g>
</g></svg>
