<svg xmlns="http://www.w3.org/2000/svg" viewBox="0 0 128 128"><title>Top down premium vehicle</title>
<defs>
  <linearGradient id="metal" x1="0" y1="0" x2="1" y2="1"><stop stop-color="#dbe5ee"/><stop offset=".48" stop-color="#7f90a3"/><stop offset="1" stop-color="#354352"/></linearGradient>
  <linearGradient id="darkMetal" x1="0" y1="0" x2="0" y2="1"><stop stop-color="#344252"/><stop offset="1" stop-color="#101820"/></linearGradient>
  <linearGradient id="wood" x1="0" y1="0" x2="1" y2="1"><stop stop-color="#8b684b"/><stop offset=".55" stop-color="#5e4434"/><stop offset="1" stop-color="#2b2425"/></linearGradient>
  <linearGradient id="fabric" x1="0" y1="0" x2="0" y2="1"><stop stop-color="#536984"/><stop offset="1" stop-color="#1d2b3a"/></linearGradient>
  <linearGradient id="water" x1="0" y1="0" x2="1" y2="1"><stop stop-color="#9fe9ef"/><stop offset=".55" stop-color="#3188a0"/><stop offset="1" stop-color="#153e5e"/></linearGradient>
  <linearGradient id="screen" x1="0" y1="0" x2="1" y2="1"><stop stop-color="#b2f7ff"/><stop offset=".4" stop-color="#41a9cf"/><stop offset="1" stop-color="#102840"/></linearGradient>
  <filter id="shadow"><feDropShadow dx="0" dy="4" stdDeviation="3" flood-color="#05080d" flood-opacity=".55"/></filter>
</defs><g filter="url(#shadow)"><path d="M38 10Q64 2 90 10L101 34L104 91Q96 118 64 122Q32 118 24 91L27 34Z" fill="#24364b"/><path d="M42 19Q64 12 86 19L93 40H35Z" fill="url(#screen)"/><path d="M34 47H94L91 86Q64 99 37 86Z" fill="#39536d"/><path d="M39 92Q64 105 89 92" stroke="#8aa6bd" stroke-opacity=".5" stroke-width="4" fill="none"/><g fill="#111820"><rect x="19" y="32" width="11" height="26" rx="5"/><rect x="98" y="32" width="11" height="26" rx="5"/><rect x="19" y="76" width="11" height="26" rx="5"/><rect x="98" y="76" width="11" height="26" rx="5"/></g><path d="M44 12L38 30M84 12L90 30" stroke="#dceaf2" stroke-opacity=".5" stroke-width="3"/></g></svg>
