<svg xmlns="http://www.w3.org/2000/svg" viewBox="0 0 128 128"><title>Top down coffee machine</title>
<defs>
  <linearGradient id="metal" x1="0" y1="0" x2="1" y2="1"><stop stop-color="#dbe5ee"/><stop offset=".48" stop-color="#7f90a3"/><stop offset="1" stop-color="#354352"/></linearGradient>
  <linearGradient id="darkMetal" x1="0" y1="0" x2="0" y2="1"><stop stop-color="#344252"/><stop offset="1" stop-color="#101820"/></linearGradient>
  <linearGradient id="wood" x1="0" y1="0" x2="1" y2="1"><stop stop-color="#8b684b"/><stop offset=".55" stop-color="#5e4434"/><stop offset="1" stop-color="#2b2425"/></linearGradient>
  <linearGradient id="fabric" x1="0" y1="0" x2="0" y2="1"><stop stop-color="#536984"/><stop offset="1" stop-color="#1d2b3a"/></linearGradient>
  <linearGradient id="water" x1="0" y1="0" x2="1" y2="1"><stop stop-color="#9fe9ef"/><stop offset=".55" stop-color="#3188a0"/><stop offset="1" stop-color="#153e5e"/></linearGradient>
  <linearGradient id="screen" x1="0" y1="0" x2="1" y2="1"><stop stop-color="#b2f7ff"/><stop offset=".4" stop-color="#41a9cf"/><stop offset="1" stop-color="#102840"/></linearGradient>
  <filter id="shadow"><feDropShadow dx="0" dy="4" stdDeviation="3" flood-color="#05080d" flood-opacity=".55"/></filter>
</defs><g filter="url(#shadow)">
  <rect x="29" y="19" width="70" height="91" rx="12" fill="#1a2531"/>
  <rect x="37" y="27" width="54" height="25" rx="6" fill="#3f5367"/><rect x="45" y="34" width="38" height="10" rx="3" fill="url(#screen)"/>
  <path d="M50 55H78V82Q78 92 64 92Q50 92 50 82Z" fill="#7c4d35"/><path d="M54 57H74V78Q74 86 64 86Q54 86 54 78Z" fill="#251b18"/>
  <rect x="39" y="94" width="50" height="9" rx="4" fill="#697b89"/>
  <path d="M55 15Q50 7 55 3M67 15Q62 7 67 3M79 15Q74 7 79 3" stroke="#dceff4" stroke-opacity=".65" stroke-width="3" fill="none" stroke-linecap="round"/>
</g></svg>
