<svg xmlns="http://www.w3.org/2000/svg" viewBox="0 0 128 128"><title>Grounded anime top down sectional couch</title>
<defs>
  <linearGradient id="metal" x1="0" y1="0" x2="1" y2="1"><stop stop-color="#dbe5ee"/><stop offset=".48" stop-color="#7f90a3"/><stop offset="1" stop-color="#354352"/></linearGradient>
  <linearGradient id="darkMetal" x1="0" y1="0" x2="0" y2="1"><stop stop-color="#344252"/><stop offset="1" stop-color="#101820"/></linearGradient>
  <linearGradient id="wood" x1="0" y1="0" x2="1" y2="1"><stop stop-color="#8b684b"/><stop offset=".55" stop-color="#5e4434"/><stop offset="1" stop-color="#2b2425"/></linearGradient>
  <linearGradient id="fabric" x1="0" y1="0" x2="0" y2="1"><stop stop-color="#536984"/><stop offset="1" stop-color="#1d2b3a"/></linearGradient>
  <linearGradient id="water" x1="0" y1="0" x2="1" y2="1"><stop stop-color="#9fe9ef"/><stop offset=".55" stop-color="#3188a0"/><stop offset="1" stop-color="#153e5e"/></linearGradient>
  <linearGradient id="screen" x1="0" y1="0" x2="1" y2="1"><stop stop-color="#b2f7ff"/><stop offset=".4" stop-color="#41a9cf"/><stop offset="1" stop-color="#102840"/></linearGradient>
  <filter id="shadow"><feDropShadow dx="0" dy="4" stdDeviation="3" flood-color="#05080d" flood-opacity=".55"/></filter>
</defs><g filter="url(#shadow)">
  <path d="M14 28Q14 18 24 18H101Q113 18 113 30V92Q113 106 99 106H69V79H42V106H24Q14 106 14 96Z" fill="#16212d"/>
  <path d="M20 31Q20 24 28 24H97Q106 24 106 33V55H70Q62 55 62 64V99H47V72H20Z" fill="url(#fabric)"/>
  <path d="M68 61H106V94Q106 99 99 99H68Z" fill="#32465c"/>
  <path d="M24 33H58V62H24Z" fill="#607792"/><path d="M68 33H101V53H68Z" fill="#536b86"/>
  <path d="M23 74H43V99H24Q20 99 20 94Z" fill="#2b3a4b"/>
  <path d="M58 28V61M20 67H47M68 57V99" stroke="#a8b6c3" stroke-opacity=".23" stroke-width="2"/>
  <path d="M18 104H108" stroke="#0a1018" stroke-width="5" stroke-linecap="round"/>
  <path d="M26 26Q47 20 61 27M71 27Q89 21 102 28" stroke="#dce7ef" stroke-opacity=".17" stroke-width="3" fill="none"/>
</g></svg>
