<svg xmlns="http://www.w3.org/2000/svg" viewBox="0 0 128 128"><title>Top down professional desk with laptop</title>
<defs>
  <linearGradient id="metal" x1="0" y1="0" x2="1" y2="1"><stop stop-color="#dbe5ee"/><stop offset=".48" stop-color="#7f90a3"/><stop offset="1" stop-color="#354352"/></linearGradient>
  <linearGradient id="darkMetal" x1="0" y1="0" x2="0" y2="1"><stop stop-color="#344252"/><stop offset="1" stop-color="#101820"/></linearGradient>
  <linearGradient id="wood" x1="0" y1="0" x2="1" y2="1"><stop stop-color="#8b684b"/><stop offset=".55" stop-color="#5e4434"/><stop offset="1" stop-color="#2b2425"/></linearGradient>
  <linearGradient id="fabric" x1="0" y1="0" x2="0" y2="1"><stop stop-color="#536984"/><stop offset="1" stop-color="#1d2b3a"/></linearGradient>
  <linearGradient id="water" x1="0" y1="0" x2="1" y2="1"><stop stop-color="#9fe9ef"/><stop offset=".55" stop-color="#3188a0"/><stop offset="1" stop-color="#153e5e"/></linearGradient>
  <linearGradient id="screen" x1="0" y1="0" x2="1" y2="1"><stop stop-color="#b2f7ff"/><stop offset=".4" stop-color="#41a9cf"/><stop offset="1" stop-color="#102840"/></linearGradient>
  <filter id="shadow"><feDropShadow dx="0" dy="4" stdDeviation="3" flood-color="#05080d" flood-opacity=".55"/></filter>
</defs><g filter="url(#shadow)">
  <rect x="14" y="34" width="100" height="68" rx="10" fill="url(#wood)"/>
  <rect x="38" y="43" width="52" height="35" rx="5" fill="#182532"/><rect x="43" y="48" width="42" height="24" rx="3" fill="url(#screen)"/>
  <path d="M34 82H94L87 91H41Z" fill="#aeb8bf"/><rect x="20" y="40" width="12" height="48" rx="4" fill="#202b35"/>
  <circle cx="101" cy="50" r="7" fill="#d7c8a8"/><rect x="97" y="58" width="8" height="19" rx="4" fill="#617890"/>
  <path d="M23 107H105" stroke="#171211" stroke-width="5" stroke-linecap="round"/>
</g></svg>
