<svg xmlns="http://www.w3.org/2000/svg" viewBox="0 0 128 128"><title>Top down glass shower enclosure</title>
<defs>
  <linearGradient id="metal" x1="0" y1="0" x2="1" y2="1"><stop stop-color="#dbe5ee"/><stop offset=".48" stop-color="#7f90a3"/><stop offset="1" stop-color="#354352"/></linearGradient>
  <linearGradient id="darkMetal" x1="0" y1="0" x2="0" y2="1"><stop stop-color="#344252"/><stop offset="1" stop-color="#101820"/></linearGradient>
  <linearGradient id="wood" x1="0" y1="0" x2="1" y2="1"><stop stop-color="#8b684b"/><stop offset=".55" stop-color="#5e4434"/><stop offset="1" stop-color="#2b2425"/></linearGradient>
  <linearGradient id="fabric" x1="0" y1="0" x2="0" y2="1"><stop stop-color="#536984"/><stop offset="1" stop-color="#1d2b3a"/></linearGradient>
  <linearGradient id="water" x1="0" y1="0" x2="1" y2="1"><stop stop-color="#9fe9ef"/><stop offset=".55" stop-color="#3188a0"/><stop offset="1" stop-color="#153e5e"/></linearGradient>
  <linearGradient id="screen" x1="0" y1="0" x2="1" y2="1"><stop stop-color="#b2f7ff"/><stop offset=".4" stop-color="#41a9cf"/><stop offset="1" stop-color="#102840"/></linearGradient>
  <filter id="shadow"><feDropShadow dx="0" dy="4" stdDeviation="3" flood-color="#05080d" flood-opacity=".55"/></filter>
</defs><g filter="url(#shadow)">
  <rect x="16" y="14" width="96" height="100" rx="10" fill="#1d3443"/>
  <rect x="22" y="20" width="84" height="88" rx="8" fill="url(#water)" opacity=".68"/>
  <path d="M64 20V108M22 64H106" stroke="#d9f6ff" stroke-opacity=".5" stroke-width="3"/>
  <circle cx="84" cy="38" r="9" fill="#dcebf0"/><g stroke="#d8f7ff" stroke-width="2" stroke-linecap="round"><path d="M78 49l-5 10M84 49v11M90 49l5 10"/></g>
  <path d="M26 27H52M27 31H49" stroke="#fff" stroke-opacity=".45" stroke-width="3"/>
</g></svg>
