<svg xmlns="http://www.w3.org/2000/svg" viewBox="0 0 128 128"><title>Top down backyard soccer field</title>
<defs>
  <linearGradient id="metal" x1="0" y1="0" x2="1" y2="1"><stop stop-color="#dbe5ee"/><stop offset=".48" stop-color="#7f90a3"/><stop offset="1" stop-color="#354352"/></linearGradient>
  <linearGradient id="darkMetal" x1="0" y1="0" x2="0" y2="1"><stop stop-color="#344252"/><stop offset="1" stop-color="#101820"/></linearGradient>
  <linearGradient id="wood" x1="0" y1="0" x2="1" y2="1"><stop stop-color="#8b684b"/><stop offset=".55" stop-color="#5e4434"/><stop offset="1" stop-color="#2b2425"/></linearGradient>
  <linearGradient id="fabric" x1="0" y1="0" x2="0" y2="1"><stop stop-color="#536984"/><stop offset="1" stop-color="#1d2b3a"/></linearGradient>
  <linearGradient id="water" x1="0" y1="0" x2="1" y2="1"><stop stop-color="#9fe9ef"/><stop offset=".55" stop-color="#3188a0"/><stop offset="1" stop-color="#153e5e"/></linearGradient>
  <linearGradient id="screen" x1="0" y1="0" x2="1" y2="1"><stop stop-color="#b2f7ff"/><stop offset=".4" stop-color="#41a9cf"/><stop offset="1" stop-color="#102840"/></linearGradient>
  <filter id="shadow"><feDropShadow dx="0" dy="4" stdDeviation="3" flood-color="#05080d" flood-opacity=".55"/></filter>
</defs><g filter="url(#shadow)"><rect x="7" y="12" width="114" height="104" rx="9" fill="#315a3e"/><path d="M14 23Q34 14 52 23T90 23T114 23M14 45Q34 36 52 45T90 45T114 45M14 67Q34 58 52 67T90 67T114 67M14 89Q34 80 52 89T90 89T114 89" stroke="#557b57" stroke-width="10" fill="none"/><rect x="14" y="20" width="100" height="88" fill="none" stroke="#e0e4d5" stroke-opacity=".8" stroke-width="3"/><path d="M64 20V108" stroke="#e0e4d5" stroke-opacity=".8" stroke-width="3"/><circle cx="64" cy="64" r="14" fill="none" stroke="#e0e4d5" stroke-opacity=".8" stroke-width="3"/></g></svg>
