<svg xmlns="http://www.w3.org/2000/svg" viewBox="0 0 128 128"><title>Top down range and oven</title>
<defs>
  <linearGradient id="metal" x1="0" y1="0" x2="1" y2="1"><stop stop-color="#dbe5ee"/><stop offset=".48" stop-color="#7f90a3"/><stop offset="1" stop-color="#354352"/></linearGradient>
  <linearGradient id="darkMetal" x1="0" y1="0" x2="0" y2="1"><stop stop-color="#344252"/><stop offset="1" stop-color="#101820"/></linearGradient>
  <linearGradient id="wood" x1="0" y1="0" x2="1" y2="1"><stop stop-color="#8b684b"/><stop offset=".55" stop-color="#5e4434"/><stop offset="1" stop-color="#2b2425"/></linearGradient>
  <linearGradient id="fabric" x1="0" y1="0" x2="0" y2="1"><stop stop-color="#536984"/><stop offset="1" stop-color="#1d2b3a"/></linearGradient>
  <linearGradient id="water" x1="0" y1="0" x2="1" y2="1"><stop stop-color="#9fe9ef"/><stop offset=".55" stop-color="#3188a0"/><stop offset="1" stop-color="#153e5e"/></linearGradient>
  <linearGradient id="screen" x1="0" y1="0" x2="1" y2="1"><stop stop-color="#b2f7ff"/><stop offset=".4" stop-color="#41a9cf"/><stop offset="1" stop-color="#102840"/></linearGradient>
  <filter id="shadow"><feDropShadow dx="0" dy="4" stdDeviation="3" flood-color="#05080d" flood-opacity=".55"/></filter>
</defs><g filter="url(#shadow)">
  <rect x="20" y="20" width="88" height="90" rx="9" fill="url(#darkMetal)"/>
  <rect x="27" y="27" width="74" height="55" rx="7" fill="#788896"/>
  <g fill="#17212a" stroke="#d7e1e8" stroke-opacity=".45" stroke-width="2"><circle cx="45" cy="44" r="11"/><circle cx="82" cy="44" r="11"/><circle cx="45" cy="68" r="9"/><circle cx="82" cy="68" r="9"/></g>
  <rect x="28" y="87" width="72" height="16" rx="5" fill="#111820"/><rect x="36" y="91" width="56" height="8" rx="3" fill="#3a4c5e"/>
  <g fill="#f1c66a"><circle cx="37" cy="106" r="2.5"/><circle cx="50" cy="106" r="2.5"/><circle cx="63" cy="106" r="2.5"/><circle cx="76" cy="106" r="2.5"/><circle cx="89" cy="106" r="2.5"/></g>
</g></svg>
