<svg xmlns="http://www.w3.org/2000/svg" viewBox="0 0 128 128"><title>Top down backyard pool</title>
<defs>
  <linearGradient id="metal" x1="0" y1="0" x2="1" y2="1"><stop stop-color="#dbe5ee"/><stop offset=".48" stop-color="#7f90a3"/><stop offset="1" stop-color="#354352"/></linearGradient>
  <linearGradient id="darkMetal" x1="0" y1="0" x2="0" y2="1"><stop stop-color="#344252"/><stop offset="1" stop-color="#101820"/></linearGradient>
  <linearGradient id="wood" x1="0" y1="0" x2="1" y2="1"><stop stop-color="#8b684b"/><stop offset=".55" stop-color="#5e4434"/><stop offset="1" stop-color="#2b2425"/></linearGradient>
  <linearGradient id="fabric" x1="0" y1="0" x2="0" y2="1"><stop stop-color="#536984"/><stop offset="1" stop-color="#1d2b3a"/></linearGradient>
  <linearGradient id="water" x1="0" y1="0" x2="1" y2="1"><stop stop-color="#9fe9ef"/><stop offset=".55" stop-color="#3188a0"/><stop offset="1" stop-color="#153e5e"/></linearGradient>
  <linearGradient id="screen" x1="0" y1="0" x2="1" y2="1"><stop stop-color="#b2f7ff"/><stop offset=".4" stop-color="#41a9cf"/><stop offset="1" stop-color="#102840"/></linearGradient>
  <filter id="shadow"><feDropShadow dx="0" dy="4" stdDeviation="3" flood-color="#05080d" flood-opacity=".55"/></filter>
</defs><g filter="url(#shadow)"><rect x="7" y="12" width="114" height="104" rx="22" fill="#d4c9b4"/><rect x="15" y="20" width="98" height="88" rx="18" fill="url(#water)"/><path d="M22 37Q64 23 106 37M20 58Q64 44 108 58M20 79Q64 65 108 79M23 99Q64 87 105 99" stroke="#ccf8ff" stroke-opacity=".48" stroke-width="4" fill="none"/><path d="M98 31V83M88 31V83M88 41H98M88 57H98M88 73H98" stroke="#e9f2f4" stroke-width="3"/></g></svg>
