<svg xmlns="http://www.w3.org/2000/svg" viewBox="0 0 960 540" role="img" aria-labelledby="title desc">
  <title id="title">Hard cam wrestling crowd background frame A</title>
  <desc id="desc">Original painted background crowd plate for a side view wrestling arena, inspired by live wrestling event seating without copying logos or photos.</desc>
  <defs>
    <linearGradient id="bg" x1="0" y1="0" x2="0" y2="1"><stop offset="0" stop-color="#060608"/><stop offset="0.5" stop-color="#141416"/><stop offset="1" stop-color="#080809"/></linearGradient>
    <radialGradient id="spot" cx="50%" cy="10%" r="70%"><stop offset="0" stop-color="#ffffff" stop-opacity="0.28"/><stop offset="0.38" stop-color="#ffffff" stop-opacity="0.07"/><stop offset="1" stop-color="#ffffff" stop-opacity="0"/></radialGradient>
    <symbol id="fan" viewBox="0 0 18 26"><circle cx="9" cy="6" r="4.2"/><path d="M2 25 C3 15 5 11 9 11 C13 11 15 15 16 25 Z"/></symbol>
    <symbol id="clap" viewBox="0 0 22 28"><circle cx="11" cy="7" r="4.3"/><path d="M3 28 C4 17 7 12 11 12 C15 12 18 17 19 28 Z"/><path d="M4 12 L0 5 M18 12 L22 5" stroke="currentColor" stroke-width="2" stroke-linecap="round" fill="none"/></symbol>
  </defs>
  <rect width="960" height="540" fill="url(#bg)"/>
  <rect width="960" height="540" fill="url(#spot)"/>
  <path d="M0 89 H960 M0 168 H960 M0 247 H960" stroke="#2a2a2d" stroke-width="3" opacity="0.8"/>
  <path d="M0 290 C170 260 310 265 480 292 C650 265 794 260 960 290 L960 345 L0 345 Z" fill="#0b0b0c" opacity="0.76"/>
  <g opacity="0.84">
    <g fill="#2e2e34"><use href="#fan" x="8" y="104"/><use href="#fan" x="60" y="101"/><use href="#fan" x="112" y="105"/><use href="#fan" x="164" y="102"/><use href="#fan" x="216" y="104"/><use href="#fan" x="268" y="101"/><use href="#fan" x="320" y="105"/><use href="#fan" x="372" y="102"/><use href="#fan" x="424" y="104"/><use href="#fan" x="476" y="101"/><use href="#fan" x="528" y="105"/><use href="#fan" x="580" y="102"/><use href="#fan" x="632" y="104"/><use href="#fan" x="684" y="101"/><use href="#fan" x="736" y="105"/><use href="#fan" x="788" y="102"/><use href="#fan" x="840" y="104"/><use href="#fan" x="892" y="101"/></g>
    <g fill="#4a3f37"><use href="#fan" x="34" y="137"/><use href="#fan" x="86" y="140"/><use href="#fan" x="138" y="136"/><use href="#fan" x="190" y="141"/><use href="#fan" x="242" y="137"/><use href="#fan" x="294" y="140"/><use href="#fan" x="346" y="136"/><use href="#fan" x="398" y="141"/><use href="#fan" x="450" y="137"/><use href="#fan" x="502" y="140"/><use href="#fan" x="554" y="136"/><use href="#fan" x="606" y="141"/><use href="#fan" x="658" y="137"/><use href="#fan" x="710" y="140"/><use href="#fan" x="762" y="136"/><use href="#fan" x="814" y="141"/><use href="#fan" x="866" y="137"/><use href="#fan" x="918" y="140"/></g>
    <g fill="#3b4655"><use href="#fan" x="10" y="175"/><use href="#fan" x="54" y="179"/><use href="#clap" x="98" y="171"/><use href="#fan" x="147" y="178"/><use href="#fan" x="191" y="175"/><use href="#fan" x="235" y="179"/><use href="#clap" x="279" y="171"/><use href="#fan" x="328" y="178"/><use href="#fan" x="372" y="175"/><use href="#fan" x="416" y="179"/><use href="#clap" x="460" y="171"/><use href="#fan" x="509" y="178"/><use href="#fan" x="553" y="175"/><use href="#fan" x="597" y="179"/><use href="#clap" x="641" y="171"/><use href="#fan" x="690" y="178"/><use href="#fan" x="734" y="175"/><use href="#fan" x="778" y="179"/><use href="#clap" x="822" y="171"/><use href="#fan" x="871" y="178"/><use href="#fan" x="915" y="175"/></g>
    <g fill="#5a4b3f"><use href="#fan" x="25" y="219"/><use href="#clap" x="70" y="213"/><use href="#fan" x="118" y="222"/><use href="#fan" x="166" y="218"/><use href="#clap" x="211" y="213"/><use href="#fan" x="259" y="222"/><use href="#fan" x="307" y="218"/><use href="#clap" x="352" y="213"/><use href="#fan" x="400" y="222"/><use href="#fan" x="448" y="218"/><use href="#clap" x="493" y="213"/><use href="#fan" x="541" y="222"/><use href="#fan" x="589" y="218"/><use href="#clap" x="634" y="213"/><use href="#fan" x="682" y="222"/><use href="#fan" x="730" y="218"/><use href="#clap" x="775" y="213"/><use href="#fan" x="823" y="222"/><use href="#fan" x="871" y="218"/><use href="#clap" x="916" y="213"/></g>
  </g>
  <g stroke="#ffffff" stroke-width="2" opacity="0.16"><path d="M190 28 L310 330"/><path d="M762 25 L650 330"/><path d="M480 18 L480 330"/></g>
</svg>