<svg xmlns="http://www.w3.org/2000/svg" viewBox="0 0 960 540" role="img" aria-labelledby="title desc">
  <title id="title">Hard cam wrestling crowd background frame B</title>
  <desc id="desc">Second original painted background crowd plate with subtle 8 fps seating and clapping variation.</desc>
  <defs>
    <linearGradient id="bg" x1="0" y1="0" x2="0" y2="1"><stop offset="0" stop-color="#070709"/><stop offset="0.5" stop-color="#161618"/><stop offset="1" stop-color="#080809"/></linearGradient>
    <radialGradient id="spot" cx="50%" cy="10%" r="70%"><stop offset="0" stop-color="#ffffff" stop-opacity="0.34"/><stop offset="0.38" stop-color="#ffffff" stop-opacity="0.08"/><stop offset="1" stop-color="#ffffff" stop-opacity="0"/></radialGradient>
    <symbol id="fan" viewBox="0 0 18 26"><circle cx="9" cy="6" r="4.2"/><path d="M2 25 C3 15 5 11 9 11 C13 11 15 15 16 25 Z"/></symbol>
    <symbol id="clap" viewBox="0 0 22 28"><circle cx="11" cy="7" r="4.3"/><path d="M3 28 C4 17 7 12 11 12 C15 12 18 17 19 28 Z"/><path d="M4 12 L1 3 M18 12 L21 3" stroke="currentColor" stroke-width="2" stroke-linecap="round" fill="none"/></symbol>
  </defs>
  <rect width="960" height="540" fill="url(#bg)"/>
  <rect width="960" height="540" fill="url(#spot)"/>
  <path d="M0 89 H960 M0 168 H960 M0 247 H960" stroke="#2e2e31" stroke-width="3" opacity="0.85"/>
  <path d="M0 290 C170 260 310 265 480 292 C650 265 794 260 960 290 L960 345 L0 345 Z" fill="#0d0d0e" opacity="0.76"/>
  <g opacity="0.88">
    <g fill="#34343a"><use href="#fan" x="8" y="103"/><use href="#fan" x="60" y="100"/><use href="#fan" x="112" y="104"/><use href="#fan" x="164" y="101"/><use href="#fan" x="216" y="103"/><use href="#fan" x="268" y="100"/><use href="#fan" x="320" y="104"/><use href="#fan" x="372" y="101"/><use href="#fan" x="424" y="103"/><use href="#fan" x="476" y="100"/><use href="#fan" x="528" y="104"/><use href="#fan" x="580" y="101"/><use href="#fan" x="632" y="103"/><use href="#fan" x="684" y="100"/><use href="#fan" x="736" y="104"/><use href="#fan" x="788" y="101"/><use href="#fan" x="840" y="103"/><use href="#fan" x="892" y="100"/></g>
    <g fill="#514337"><use href="#fan" x="34" y="139"/><use href="#fan" x="86" y="141"/><use href="#fan" x="138" y="137"/><use href="#fan" x="190" y="142"/><use href="#fan" x="242" y="139"/><use href="#fan" x="294" y="141"/><use href="#fan" x="346" y="137"/><use href="#fan" x="398" y="142"/><use href="#fan" x="450" y="139"/><use href="#fan" x="502" y="141"/><use href="#fan" x="554" y="137"/><use href="#fan" x="606" y="142"/><use href="#fan" x="658" y="139"/><use href="#fan" x="710" y="141"/><use href="#fan" x="762" y="137"/><use href="#fan" x="814" y="142"/><use href="#fan" x="866" y="139"/><use href="#fan" x="918" y="141"/></g>
    <g fill="#3f4c5d"><use href="#fan" x="10" y="177"/><use href="#clap" x="54" y="170"/><use href="#fan" x="102" y="176"/><use href="#fan" x="147" y="179"/><use href="#fan" x="191" y="177"/><use href="#clap" x="235" y="170"/><use href="#fan" x="283" y="176"/><use href="#fan" x="328" y="179"/><use href="#fan" x="372" y="177"/><use href="#clap" x="416" y="170"/><use href="#fan" x="464" y="176"/><use href="#fan" x="509" y="179"/><use href="#fan" x="553" y="177"/><use href="#clap" x="597" y="170"/><use href="#fan" x="645" y="176"/><use href="#fan" x="690" y="179"/><use href="#fan" x="734" y="177"/><use href="#clap" x="778" y="170"/><use href="#fan" x="826" y="176"/><use href="#fan" x="871" y="179"/><use href="#fan" x="915" y="177"/></g>
    <g fill="#665445"><use href="#clap" x="25" y="212"/><use href="#fan" x="74" y="220"/><use href="#fan" x="118" y="219"/><use href="#clap" x="166" y="212"/><use href="#fan" x="215" y="220"/><use href="#fan" x="259" y="219"/><use href="#clap" x="307" y="212"/><use href="#fan" x="356" y="220"/><use href="#fan" x="400" y="219"/><use href="#clap" x="448" y="212"/><use href="#fan" x="497" y="220"/><use href="#fan" x="541" y="219"/><use href="#clap" x="589" y="212"/><use href="#fan" x="638" y="220"/><use href="#fan" x="682" y="219"/><use href="#clap" x="730" y="212"/><use href="#fan" x="779" y="220"/><use href="#fan" x="823" y="219"/><use href="#clap" x="871" y="212"/><use href="#fan" x="920" y="220"/></g>
  </g>
  <g stroke="#ffffff" stroke-width="2" opacity="0.18"><path d="M200 28 L314 330"/><path d="M752 25 L642 330"/><path d="M480 18 L480 330"/></g>
</svg>