<svg xmlns="http://www.w3.org/2000/svg" viewBox="0 0 512 512"><title>Adult shepherd mix grounded true top down 8 FPS sprite sheet</title><style>.tan{fill:#b77b45;stroke:#11161c;stroke-width:2.6}.dark{fill:#28231f;stroke:#11161c;stroke-width:2.2;stroke-linejoin:round}.leg{fill:none;stroke:#b77b45;stroke-width:7;stroke-linecap:round}.tail{fill:none;stroke:#28231f;stroke-width:6;stroke-linecap:round}.mark{fill:none;stroke:#d7b081;stroke-width:3;stroke-linecap:round}.eye{fill:#16110e;stroke:#11161c;stroke-width:1}</style><defs><g id="d0"><path d="M48 70C44 78 44 90 48 100" class="leg"/><path d="M80 70C84 86 84 98 80 108" class="leg"/><path d="M50 47C45 62 44 73 47 84" class="leg"/><path d="M78 47C83 54 84 65 81 76" class="leg"/><ellipse cx="64" cy="68" rx="24" ry="31" class="tan"/><path d="M45 57C50 44 78 44 83 57C78 72 75 86 64 96C53 86 50 72 45 57Z" class="dark"/><ellipse cx="64" cy="38" rx="20" ry="18" class="tan"/><path d="M48 31L42 13L57 24ZM80 31L86 13L71 24Z" class="dark"/><path d="M54 39C57 31 71 31 75 39C72 49 69 55 64 57C59 55 56 49 54 39Z" class="dark"/><ellipse cx="64" cy="48" rx="8" ry="7" class="dark"/><circle cx="57" cy="36" r="2.1" class="eye"/><circle cx="71" cy="36" r="2.1" class="eye"/><path d="M65 92C78 99 87 108 88 119" class="tail"/><path d="M53 64Q64 70 75 64" class="mark"/></g><g id="d1"><use href="#d0"/><path d="M48 70C44 81 44 93 48 103" class="leg"/><path d="M80 70C84 83 84 95 80 105" class="leg"/></g><g id="d2"><use href="#d0"/><path d="M48 70C44 86 44 98 48 108" class="leg"/><path d="M80 70C84 78 84 90 80 100" class="leg"/></g><g id="d3"><use href="#d0"/><path d="M48 70C44 83 44 95 48 105" class="leg"/><path d="M80 70C84 81 84 93 80 103" class="leg"/></g></defs><g transform="translate(0 0)"><use href="#d0"/></g><g transform="translate(128 0)"><use href="#d1"/></g><g transform="translate(256 0)"><use href="#d2"/></g><g transform="translate(384 0)"><use href="#d3"/></g><g transform="translate(0 128) rotate(90 64 64)"><use href="#d0"/></g><g transform="translate(128 128) rotate(90 64 64)"><use href="#d1"/></g><g transform="translate(256 128) rotate(90 64 64)"><use href="#d2"/></g><g transform="translate(384 128) rotate(90 64 64)"><use href="#d3"/></g><g transform="translate(0 256) rotate(-90 64 64)"><use href="#d0"/></g><g transform="translate(128 256) rotate(-90 64 64)"><use href="#d1"/></g><g transform="translate(256 256) rotate(-90 64 64)"><use href="#d2"/></g><g transform="translate(384 256) rotate(-90 64 64)"><use href="#d3"/></g><g transform="translate(0 384) rotate(180 64 64)"><use href="#d0"/></g><g transform="translate(128 384) rotate(180 64 64)"><use href="#d1"/></g><g transform="translate(256 384) rotate(180 64 64)"><use href="#d2"/></g><g transform="translate(384 384) rotate(180 64 64)"><use href="#d3"/></g></svg>