<svg xmlns="http://www.w3.org/2000/svg" viewBox="0 0 512 512"><title>Adult shepherd mix strict top down 8 FPS sprite sheet</title><style>.tan{fill:#b77b45;stroke:#11161c;stroke-width:2.5}.dark{fill:#28231f;stroke:#11161c;stroke-width:2.2;stroke-linejoin:round}.leg{fill:none;stroke:#b77b45;stroke-width:8;stroke-linecap:round}.tail{fill:none;stroke:#28231f;stroke-width:7;stroke-linecap:round}.mark{fill:none;stroke:#d7b081;stroke-width:3;stroke-linecap:round}.eye{fill:#14100d}</style><defs><g id="d0"><ellipse cx="64" cy="110" rx="26" ry="8" fill="#05080d" opacity=".18"/><path d="M48 63Q49 78 51 99M80 63Q79 78 77 99M49 79Q38 91 40 108M79 79Q90 91 88 108" class="leg"/><ellipse cx="64" cy="70" rx="25" ry="32" class="tan"/><path d="M44 57Q64 42 84 57Q80 82 64 99Q48 82 44 57Z" class="dark"/><path d="M53 65Q64 72 75 65" class="mark"/><ellipse cx="64" cy="37" rx="20" ry="18" class="tan"/><path d="M48 31L42 12L57 24ZM80 31L86 12L71 24Z" class="dark"/><path d="M53 39Q64 27 75 39Q72 51 64 57Q56 51 53 39Z" class="dark"/><ellipse cx="64" cy="48" rx="8" ry="7" class="dark"/><circle cx="57" cy="35" r="2.2" class="eye"/><circle cx="71" cy="35" r="2.2" class="eye"/><path d="M66 95Q70 104 77 118" class="tail"/></g><g id="d1"><ellipse cx="64" cy="110" rx="26" ry="8" fill="#05080d" opacity=".18"/><path d="M48 63Q45.8 78 47.8 99M80 63Q82.2 78 80.2 99M49 79Q41.2 91 43.2 108M79 79Q86.8 91 84.8 108" class="leg"/><ellipse cx="64" cy="70" rx="25" ry="32" class="tan"/><path d="M44 57Q64 42 84 57Q80 82 64 99Q48 82 44 57Z" class="dark"/><path d="M53 65Q64 72 75 65" class="mark"/><ellipse cx="64" cy="37" rx="20" ry="18" class="tan"/><path d="M48 31L42 12L57 24ZM80 31L86 12L71 24Z" class="dark"/><path d="M53 39Q64 27 75 39Q72 51 64 57Q56 51 53 39Z" class="dark"/><ellipse cx="64" cy="48" rx="8" ry="7" class="dark"/><circle cx="57" cy="35" r="2.2" class="eye"/><circle cx="71" cy="35" r="2.2" class="eye"/><path d="M66 95Q75.8 104 82.8 118" class="tail"/></g><g id="d2"><ellipse cx="64" cy="110" rx="26" ry="8" fill="#05080d" opacity=".18"/><path d="M48 63Q39 78 41 99M80 63Q89 78 87 99M49 79Q48 91 50 108M79 79Q80 91 78 108" class="leg"/><ellipse cx="64" cy="70" rx="25" ry="32" class="tan"/><path d="M44 57Q64 42 84 57Q80 82 64 99Q48 82 44 57Z" class="dark"/><path d="M53 65Q64 72 75 65" class="mark"/><ellipse cx="64" cy="37" rx="20" ry="18" class="tan"/><path d="M48 31L42 12L57 24ZM80 31L86 12L71 24Z" class="dark"/><path d="M53 39Q64 27 75 39Q72 51 64 57Q56 51 53 39Z" class="dark"/><ellipse cx="64" cy="48" rx="8" ry="7" class="dark"/><circle cx="57" cy="35" r="2.2" class="eye"/><circle cx="71" cy="35" r="2.2" class="eye"/><path d="M66 95Q88 104 95 118" class="tail"/></g><g id="d3"><ellipse cx="64" cy="110" rx="26" ry="8" fill="#05080d" opacity=".18"/><path d="M48 63Q42.2 78 44.2 99M80 63Q85.8 78 83.8 99M49 79Q44.8 91 46.8 108M79 79Q83.2 91 81.2 108" class="leg"/><ellipse cx="64" cy="70" rx="25" ry="32" class="tan"/><path d="M44 57Q64 42 84 57Q80 82 64 99Q48 82 44 57Z" class="dark"/><path d="M53 65Q64 72 75 65" class="mark"/><ellipse cx="64" cy="37" rx="20" ry="18" class="tan"/><path d="M48 31L42 12L57 24ZM80 31L86 12L71 24Z" class="dark"/><path d="M53 39Q64 27 75 39Q72 51 64 57Q56 51 53 39Z" class="dark"/><ellipse cx="64" cy="48" rx="8" ry="7" class="dark"/><circle cx="57" cy="35" r="2.2" class="eye"/><circle cx="71" cy="35" r="2.2" class="eye"/><path d="M66 95Q82.2 104 89.2 118" class="tail"/></g></defs><g transform="translate(0 0)"><use href="#d0"/></g><g transform="translate(128 0)"><use href="#d1"/></g><g transform="translate(256 0)"><use href="#d2"/></g><g transform="translate(384 0)"><use href="#d3"/></g><g transform="translate(0 128) rotate(90 64 64)"><use href="#d0"/></g><g transform="translate(128 128) rotate(90 64 64)"><use href="#d1"/></g><g transform="translate(256 128) rotate(90 64 64)"><use href="#d2"/></g><g transform="translate(384 128) rotate(90 64 64)"><use href="#d3"/></g><g transform="translate(0 256) rotate(-90 64 64)"><use href="#d0"/></g><g transform="translate(128 256) rotate(-90 64 64)"><use href="#d1"/></g><g transform="translate(256 256) rotate(-90 64 64)"><use href="#d2"/></g><g transform="translate(384 256) rotate(-90 64 64)"><use href="#d3"/></g><g transform="translate(0 384) rotate(180 64 64)"><use href="#d0"/></g><g transform="translate(128 384) rotate(180 64 64)"><use href="#d1"/></g><g transform="translate(256 384) rotate(180 64 64)"><use href="#d2"/></g><g transform="translate(384 384) rotate(180 64 64)"><use href="#d3"/></g></svg>