<svg xmlns="http://www.w3.org/2000/svg" width="512" height="128" viewBox="0 0 512 128">
  <defs>
    <linearGradient id="coat" x1="0" y1="0" x2="0" y2="1">
      <stop offset="0" stop-color="#8a5b3e"/>
      <stop offset="1" stop-color="#5a3829"/>
    </linearGradient>
    <linearGradient id="white" x1="0" y1="0" x2="1" y2="1">
      <stop offset="0" stop-color="#fffaf0"/>
      <stop offset="1" stop-color="#d8d0c0"/>
    </linearGradient>
    <filter id="soft" x="-20%" y="-20%" width="140%" height="140%">
      <feGaussianBlur stdDeviation="1.2"/>
    </filter>
  </defs>

  <!-- north -->
  <g transform="translate(0 0)">
    <ellipse cx="64" cy="72" rx="25" ry="41" fill="#15202a" opacity=".22" filter="url(#soft)"/>
    <path d="M52 105 C46 112 44 119 48 124 C54 121 58 115 60 106 Z" fill="#5a3829"/>
    <ellipse cx="64" cy="74" rx="24" ry="36" fill="url(#coat)" stroke="#1b1513" stroke-width="2.4"/>
    <ellipse cx="64" cy="79" rx="15" ry="27" fill="url(#white)" opacity=".9"/>
    <ellipse cx="64" cy="45" rx="22" ry="20" fill="#7b4d35" stroke="#1b1513" stroke-width="2.4"/>
    <path d="M45 46 C34 37 35 25 45 20 C52 28 54 37 52 47 Z" fill="#4d3025" stroke="#1b1513" stroke-width="2"/>
    <path d="M83 46 C94 37 93 25 83 20 C76 28 74 37 76 47 Z" fill="#4d3025" stroke="#1b1513" stroke-width="2"/>
    <ellipse cx="64" cy="40" rx="11" ry="13" fill="url(#white)"/>
    <circle cx="57" cy="39" r="2.5" fill="#090b0d"/>
    <circle cx="71" cy="39" r="2.5" fill="#090b0d"/>
    <ellipse cx="64" cy="30" rx="5" ry="4" fill="#090b0d"/>
    <path d="M42 66 C34 72 33 91 39 101 C45 99 48 93 48 84 L49 68 Z" fill="#6b432f" stroke="#1b1513" stroke-width="2"/>
    <path d="M86 66 C94 72 95 91 89 101 C83 99 80 93 80 84 L79 68 Z" fill="#6b432f" stroke="#1b1513" stroke-width="2"/>
    <ellipse cx="40" cy="104" rx="8" ry="6" fill="#e9e1d3" stroke="#1b1513" stroke-width="1.7"/>
    <ellipse cx="88" cy="104" rx="8" ry="6" fill="#e9e1d3" stroke="#1b1513" stroke-width="1.7"/>
  </g>

  <!-- south -->
  <g transform="translate(128 0)">
    <ellipse cx="64" cy="69" rx="25" ry="41" fill="#15202a" opacity=".22" filter="url(#soft)"/>
    <path d="M59 23 C54 14 55 7 62 3 C68 10 69 17 67 26 Z" fill="#5a3829"/>
    <ellipse cx="64" cy="60" rx="24" ry="36" fill="url(#coat)" stroke="#1b1513" stroke-width="2.4"/>
    <ellipse cx="64" cy="57" rx="15" ry="27" fill="url(#white)" opacity=".9"/>
    <ellipse cx="64" cy="91" rx="22" ry="20" fill="#7b4d35" stroke="#1b1513" stroke-width="2.4"/>
    <path d="M45 88 C34 97 35 110 45 115 C52 107 54 98 52 87 Z" fill="#4d3025" stroke="#1b1513" stroke-width="2"/>
    <path d="M83 88 C94 97 93 110 83 115 C76 107 74 98 76 87 Z" fill="#4d3025" stroke="#1b1513" stroke-width="2"/>
    <ellipse cx="64" cy="96" rx="11" ry="13" fill="url(#white)"/>
    <circle cx="57" cy="94" r="2.5" fill="#090b0d"/>
    <circle cx="71" cy="94" r="2.5" fill="#090b0d"/>
    <ellipse cx="64" cy="107" rx="5" ry="4" fill="#090b0d"/>
    <path d="M42 48 C34 42 33 23 39 13 C45 15 48 21 48 30 L49 46 Z" fill="#6b432f" stroke="#1b1513" stroke-width="2"/>
    <path d="M86 48 C94 42 95 23 89 13 C83 15 80 21 80 30 L79 46 Z" fill="#6b432f" stroke="#1b1513" stroke-width="2"/>
    <ellipse cx="40" cy="11" rx="8" ry="6" fill="#e9e1d3" stroke="#1b1513" stroke-width="1.7"/>
    <ellipse cx="88" cy="11" rx="8" ry="6" fill="#e9e1d3" stroke="#1b1513" stroke-width="1.7"/>
  </g>

  <!-- east -->
  <g transform="translate(256 0)">
    <ellipse cx="62" cy="69" rx="42" ry="25" fill="#15202a" opacity=".22" filter="url(#soft)"/>
    <path d="M20 61 C10 55 4 57 2 65 C10 70 17 71 25 68 Z" fill="#5a3829"/>
    <ellipse cx="62" cy="64" rx="37" ry="24" fill="url(#coat)" stroke="#1b1513" stroke-width="2.4"/>
    <ellipse cx="62" cy="64" rx="27" ry="15" fill="url(#white)" opacity=".9"/>
    <ellipse cx="96" cy="64" rx="20" ry="22" fill="#7b4d35" stroke="#1b1513" stroke-width="2.4"/>
    <path d="M95 45 C101 33 114 31 121 39 C114 48 106 52 96 52 Z" fill="#4d3025" stroke="#1b1513" stroke-width="2"/>
    <path d="M95 83 C101 95 114 97 121 89 C114 80 106 76 96 76 Z" fill="#4d3025" stroke="#1b1513" stroke-width="2"/>
    <ellipse cx="103" cy="64" rx="13" ry="11" fill="url(#white)"/>
    <circle cx="104" cy="57" r="2.5" fill="#090b0d"/>
    <circle cx="104" cy="71" r="2.5" fill="#090b0d"/>
    <ellipse cx="115" cy="64" rx="4" ry="5" fill="#090b0d"/>
    <path d="M54 42 C48 34 29 33 19 39 C21 45 27 48 36 48 L52 49 Z" fill="#6b432f" stroke="#1b1513" stroke-width="2"/>
    <path d="M54 86 C48 94 29 95 19 89 C21 83 27 80 36 80 L52 79 Z" fill="#6b432f" stroke="#1b1513" stroke-width="2"/>
    <ellipse cx="17" cy="40" rx="6" ry="8" fill="#e9e1d3" stroke="#1b1513" stroke-width="1.7"/>
    <ellipse cx="17" cy="88" rx="6" ry="8" fill="#e9e1d3" stroke="#1b1513" stroke-width="1.7"/>
  </g>

  <!-- west -->
  <g transform="translate(384 0)">
    <ellipse cx="66" cy="69" rx="42" ry="25" fill="#15202a" opacity=".22" filter="url(#soft)"/>
    <path d="M108 61 C118 55 124 57 126 65 C118 70 111 71 103 68 Z" fill="#5a3829"/>
    <ellipse cx="66" cy="64" rx="37" ry="24" fill="url(#coat)" stroke="#1b1513" stroke-width="2.4"/>
    <ellipse cx="66" cy="64" rx="27" ry="15" fill="url(#white)" opacity=".9"/>
    <ellipse cx="32" cy="64" rx="20" ry="22" fill="#7b4d35" stroke="#1b1513" stroke-width="2.4"/>
    <path d="M33 45 C27 33 14 31 7 39 C14 48 22 52 32 52 Z" fill="#4d3025" stroke="#1b1513" stroke-width="2"/>
    <path d="M33 83 C27 95 14 97 7 89 C14 80 22 76 32 76 Z" fill="#4d3025" stroke="#1b1513" stroke-width="2"/>
    <ellipse cx="25" cy="64" rx="13" ry="11" fill="url(#white)"/>
    <circle cx="24" cy="57" r="2.5" fill="#090b0d"/>
    <circle cx="24" cy="71" r="2.5" fill="#090b0d"/>
    <ellipse cx="13" cy="64" rx="4" ry="5" fill="#090b0d"/>
    <path d="M74 42 C80 34 99 33 109 39 C107 45 101 48 92 48 L76 49 Z" fill="#6b432f" stroke="#1b1513" stroke-width="2"/>
    <path d="M74 86 C80 94 99 95 109 89 C107 83 101 80 92 80 L76 79 Z" fill="#6b432f" stroke="#1b1513" stroke-width="2"/>
    <ellipse cx="111" cy="40" rx="6" ry="8" fill="#e9e1d3" stroke="#1b1513" stroke-width="1.7"/>
    <ellipse cx="111" cy="88" rx="6" ry="8" fill="#e9e1d3" stroke="#1b1513" stroke-width="1.7"/>
  </g>
</svg>
