<svg xmlns="http://www.w3.org/2000/svg" viewBox="0 0 96 96">
  <defs><filter id="s" x="-20%" y="-20%" width="140%" height="140%"><feDropShadow dx="0" dy="4" stdDeviation="3" flood-color="#000" flood-opacity=".35"/></filter></defs>
  <ellipse cx="48" cy="65" rx="34" ry="16" fill="#000" opacity=".22"/>
  <g filter="url(#s)" stroke="#071018" stroke-linecap="round" stroke-linejoin="round">
    <path d="M22 48 C15 42 12 36 12 30" fill="none" stroke="#f3eadb" stroke-width="9"/>
    <ellipse cx="48" cy="52" rx="34" ry="22" fill="#f3eadb" stroke-width="4"/>
    <ellipse cx="38" cy="48" rx="13" ry="10" fill="#8b5a34" stroke="none"/>
    <ellipse cx="58" cy="57" rx="10" ry="8" fill="#fff8ea" stroke="none" opacity=".85"/>
    <path d="M27 66 L20 80" stroke="#f3eadb" stroke-width="8"/>
    <path d="M42 68 L39 82" stroke="#f3eadb" stroke-width="8"/>
    <path d="M58 68 L61 82" stroke="#f3eadb" stroke-width="8"/>
    <path d="M72 65 L79 78" stroke="#f3eadb" stroke-width="8"/>
    <ellipse cx="75" cy="46" rx="17" ry="15" fill="#8b5a34" stroke-width="4"/>
    <ellipse cx="81" cy="46" rx="10" ry="8" fill="#8b5a34" stroke-width="3"/>
    <ellipse cx="87" cy="46" rx="4" ry="3" fill="#071018" stroke="none"/>
    <ellipse cx="68" cy="35" rx="7" ry="10" fill="#5b3828" stroke-width="2" transform="rotate(-20 68 35)"/>
    <ellipse cx="69" cy="57" rx="7" ry="10" fill="#5b3828" stroke-width="2" transform="rotate(20 69 57)"/>
    <ellipse cx="78" cy="41" rx="2" ry="2" fill="#071018" stroke="none"/>
  </g>
</svg>
