<svg xmlns="http://www.w3.org/2000/svg" viewBox="0 0 512 512"><title>Adult shepherd mix true top down 8 FPS sheet</title><g data-frame="south-0" transform="translate(0 0)"><ellipse cx="64" cy="109" rx="28" ry="7" fill="#05080d" opacity=".38"/><ellipse cx="64" cy="69" rx="25" ry="34" fill="#a87a4d"/><path d="M45 55Q64 43 83 55L78 81Q64 92 50 81Z" fill="#332c2c"/><ellipse cx="64" cy="39" rx="17" ry="16" fill="#a87a4d"/><path d="M48 83L39 111M60 89L62 114M70 89L68 114M82 83L91 111" stroke="#9d7148" stroke-width="9" stroke-linecap="round"/><path d="M42 61Q26 57 23 44" stroke="#332c2c" stroke-width="8" fill="none" stroke-linecap="round"/><path d="M52 31L45 15L59 25M76 31L83 15L69 25" fill="#332c2c" stroke="#332c2c" stroke-width="3"/><circle cx="58" cy="38" r="2.5" fill="#101419"/><circle cx="70" cy="38" r="2.5" fill="#101419"/><ellipse cx="64" cy="48" rx="5" ry="4" fill="#161416"/></g><g data-frame="south-1" transform="translate(128 0)"><ellipse cx="64" cy="109" rx="28" ry="7" fill="#05080d" opacity=".38"/><ellipse cx="64" cy="68" rx="25" ry="34" fill="#a87a4d"/><path d="M45 54Q64 42 83 54L78 80Q64 91 50 80Z" fill="#332c2c"/><ellipse cx="64" cy="38" rx="17" ry="16" fill="#a87a4d"/><path d="M48 82L43 111M60 88L58 114M70 88L72 114M82 82L87 111" stroke="#9d7148" stroke-width="9" stroke-linecap="round"/><path d="M42 60Q26 56 23 43" stroke="#332c2c" stroke-width="8" fill="none" stroke-linecap="round"/><path d="M52 30L45 14L59 24M76 30L83 14L69 24" fill="#332c2c" stroke="#332c2c" stroke-width="3"/><circle cx="58" cy="37" r="2.5" fill="#101419"/><circle cx="70" cy="37" r="2.5" fill="#101419"/><ellipse cx="64" cy="47" rx="5" ry="4" fill="#161416"/></g><g data-frame="south-2" transform="translate(256 0)"><ellipse cx="64" cy="109" rx="28" ry="7" fill="#05080d" opacity=".38"/><ellipse cx="64" cy="67" rx="25" ry="34" fill="#a87a4d"/><path d="M45 53Q64 41 83 53L78 79Q64 90 50 79Z" fill="#332c2c"/><ellipse cx="64" cy="37" rx="17" ry="16" fill="#a87a4d"/><path d="M48 81L47 111M60 87L54 114M70 87L76 114M82 81L83 111" stroke="#9d7148" stroke-width="9" stroke-linecap="round"/><path d="M42 59Q26 55 23 42" stroke="#332c2c" stroke-width="8" fill="none" stroke-linecap="round"/><path d="M52 29L45 13L59 23M76 29L83 13L69 23" fill="#332c2c" stroke="#332c2c" stroke-width="3"/><circle cx="58" cy="36" r="2.5" fill="#101419"/><circle cx="70" cy="36" r="2.5" fill="#101419"/><ellipse cx="64" cy="46" rx="5" ry="4" fill="#161416"/></g><g data-frame="south-3" transform="translate(384 0)"><ellipse cx="64" cy="109" rx="28" ry="7" fill="#05080d" opacity=".38"/><ellipse cx="64" cy="68" rx="25" ry="34" fill="#a87a4d"/><path d="M45 54Q64 42 83 54L78 80Q64 91 50 80Z" fill="#332c2c"/><ellipse cx="64" cy="38" rx="17" ry="16" fill="#a87a4d"/><path d="M48 82L43 111M60 88L58 114M70 88L72 114M82 82L87 111" stroke="#9d7148" stroke-width="9" stroke-linecap="round"/><path d="M42 60Q26 56 23 43" stroke="#332c2c" stroke-width="8" fill="none" stroke-linecap="round"/><path d="M52 30L45 14L59 24M76 30L83 14L69 24" fill="#332c2c" stroke="#332c2c" stroke-width="3"/><circle cx="58" cy="37" r="2.5" fill="#101419"/><circle cx="70" cy="37" r="2.5" fill="#101419"/><ellipse cx="64" cy="47" rx="5" ry="4" fill="#161416"/></g><g data-frame="west-0" transform="translate(0 128)"><ellipse cx="64" cy="109" rx="28" ry="7" fill="#05080d" opacity=".38"/><ellipse cx="64" cy="67" rx="33" ry="20" fill="#a87a4d"/><path d="M42 54Q64 43 87 56L82 75Q64 84 43 73Z" fill="#332c2c"/><ellipse cx="37" cy="51" rx="15" ry="14" fill="#a87a4d"/><path d="M48 83L39 111M60 89L62 114M70 89L68 114M82 83L91 111" stroke="#9d7148" stroke-width="9" stroke-linecap="round"/><path d="M42 61Q26 57 23 44" stroke="#332c2c" stroke-width="8" fill="none" stroke-linecap="round"/><path d="M52 31L45 15L59 25M76 31L83 15L69 25" fill="#332c2c" stroke="#332c2c" stroke-width="3"/><circle cx="54" cy="38" r="2.5" fill="#101419"/><circle cx="48" cy="38" r="2.5" fill="#101419"/><ellipse cx="45" cy="48" rx="5" ry="4" fill="#161416"/></g><g data-frame="west-1" transform="translate(128 128)"><ellipse cx="64" cy="109" rx="28" ry="7" fill="#05080d" opacity=".38"/><ellipse cx="64" cy="66" rx="33" ry="20" fill="#a87a4d"/><path d="M42 53Q64 42 87 55L82 74Q64 83 43 72Z" fill="#332c2c"/><ellipse cx="37" cy="50" rx="15" ry="14" fill="#a87a4d"/><path d="M48 82L43 111M60 88L58 114M70 88L72 114M82 82L87 111" stroke="#9d7148" stroke-width="9" stroke-linecap="round"/><path d="M42 60Q26 56 23 43" stroke="#332c2c" stroke-width="8" fill="none" stroke-linecap="round"/><path d="M52 30L45 14L59 24M76 30L83 14L69 24" fill="#332c2c" stroke="#332c2c" stroke-width="3"/><circle cx="54" cy="37" r="2.5" fill="#101419"/><circle cx="48" cy="37" r="2.5" fill="#101419"/><ellipse cx="45" cy="47" rx="5" ry="4" fill="#161416"/></g><g data-frame="west-2" transform="translate(256 128)"><ellipse cx="64" cy="109" rx="28" ry="7" fill="#05080d" opacity=".38"/><ellipse cx="64" cy="65" rx="33" ry="20" fill="#a87a4d"/><path d="M42 52Q64 41 87 54L82 73Q64 82 43 71Z" fill="#332c2c"/><ellipse cx="37" cy="49" rx="15" ry="14" fill="#a87a4d"/><path d="M48 81L47 111M60 87L54 114M70 87L76 114M82 81L83 111" stroke="#9d7148" stroke-width="9" stroke-linecap="round"/><path d="M42 59Q26 55 23 42" stroke="#332c2c" stroke-width="8" fill="none" stroke-linecap="round"/><path d="M52 29L45 13L59 23M76 29L83 13L69 23" fill="#332c2c" stroke="#332c2c" stroke-width="3"/><circle cx="54" cy="36" r="2.5" fill="#101419"/><circle cx="48" cy="36" r="2.5" fill="#101419"/><ellipse cx="45" cy="46" rx="5" ry="4" fill="#161416"/></g><g data-frame="west-3" transform="translate(384 128)"><ellipse cx="64" cy="109" rx="28" ry="7" fill="#05080d" opacity=".38"/><ellipse cx="64" cy="66" rx="33" ry="20" fill="#a87a4d"/><path d="M42 53Q64 42 87 55L82 74Q64 83 43 72Z" fill="#332c2c"/><ellipse cx="37" cy="50" rx="15" ry="14" fill="#a87a4d"/><path d="M48 82L43 111M60 88L58 114M70 88L72 114M82 82L87 111" stroke="#9d7148" stroke-width="9" stroke-linecap="round"/><path d="M42 60Q26 56 23 43" stroke="#332c2c" stroke-width="8" fill="none" stroke-linecap="round"/><path d="M52 30L45 14L59 24M76 30L83 14L69 24" fill="#332c2c" stroke="#332c2c" stroke-width="3"/><circle cx="54" cy="37" r="2.5" fill="#101419"/><circle cx="48" cy="37" r="2.5" fill="#101419"/><ellipse cx="45" cy="47" rx="5" ry="4" fill="#161416"/></g><g data-frame="east-0" transform="translate(0 256)"><ellipse cx="64" cy="109" rx="28" ry="7" fill="#05080d" opacity=".38"/><ellipse cx="64" cy="67" rx="33" ry="20" fill="#a87a4d"/><path d="M42 54Q64 43 87 56L82 75Q64 84 43 73Z" fill="#332c2c"/><ellipse cx="91" cy="51" rx="15" ry="14" fill="#a87a4d"/><path d="M48 83L39 111M60 89L62 114M70 89L68 114M82 83L91 111" stroke="#9d7148" stroke-width="9" stroke-linecap="round"/><path d="M42 61Q26 57 23 44" stroke="#332c2c" stroke-width="8" fill="none" stroke-linecap="round"/><path d="M52 31L45 15L59 25M76 31L83 15L69 25" fill="#332c2c" stroke="#332c2c" stroke-width="3"/><circle cx="74" cy="38" r="2.5" fill="#101419"/><circle cx="80" cy="38" r="2.5" fill="#101419"/><ellipse cx="83" cy="48" rx="5" ry="4" fill="#161416"/></g><g data-frame="east-1" transform="translate(128 256)"><ellipse cx="64" cy="109" rx="28" ry="7" fill="#05080d" opacity=".38"/><ellipse cx="64" cy="66" rx="33" ry="20" fill="#a87a4d"/><path d="M42 53Q64 42 87 55L82 74Q64 83 43 72Z" fill="#332c2c"/><ellipse cx="91" cy="50" rx="15" ry="14" fill="#a87a4d"/><path d="M48 82L43 111M60 88L58 114M70 88L72 114M82 82L87 111" stroke="#9d7148" stroke-width="9" stroke-linecap="round"/><path d="M42 60Q26 56 23 43" stroke="#332c2c" stroke-width="8" fill="none" stroke-linecap="round"/><path d="M52 30L45 14L59 24M76 30L83 14L69 24" fill="#332c2c" stroke="#332c2c" stroke-width="3"/><circle cx="74" cy="37" r="2.5" fill="#101419"/><circle cx="80" cy="37" r="2.5" fill="#101419"/><ellipse cx="83" cy="47" rx="5" ry="4" fill="#161416"/></g><g data-frame="east-2" transform="translate(256 256)"><ellipse cx="64" cy="109" rx="28" ry="7" fill="#05080d" opacity=".38"/><ellipse cx="64" cy="65" rx="33" ry="20" fill="#a87a4d"/><path d="M42 52Q64 41 87 54L82 73Q64 82 43 71Z" fill="#332c2c"/><ellipse cx="91" cy="49" rx="15" ry="14" fill="#a87a4d"/><path d="M48 81L47 111M60 87L54 114M70 87L76 114M82 81L83 111" stroke="#9d7148" stroke-width="9" stroke-linecap="round"/><path d="M42 59Q26 55 23 42" stroke="#332c2c" stroke-width="8" fill="none" stroke-linecap="round"/><path d="M52 29L45 13L59 23M76 29L83 13L69 23" fill="#332c2c" stroke="#332c2c" stroke-width="3"/><circle cx="74" cy="36" r="2.5" fill="#101419"/><circle cx="80" cy="36" r="2.5" fill="#101419"/><ellipse cx="83" cy="46" rx="5" ry="4" fill="#161416"/></g><g data-frame="east-3" transform="translate(384 256)"><ellipse cx="64" cy="109" rx="28" ry="7" fill="#05080d" opacity=".38"/><ellipse cx="64" cy="66" rx="33" ry="20" fill="#a87a4d"/><path d="M42 53Q64 42 87 55L82 74Q64 83 43 72Z" fill="#332c2c"/><ellipse cx="91" cy="50" rx="15" ry="14" fill="#a87a4d"/><path d="M48 82L43 111M60 88L58 114M70 88L72 114M82 82L87 111" stroke="#9d7148" stroke-width="9" stroke-linecap="round"/><path d="M42 60Q26 56 23 43" stroke="#332c2c" stroke-width="8" fill="none" stroke-linecap="round"/><path d="M52 30L45 14L59 24M76 30L83 14L69 24" fill="#332c2c" stroke="#332c2c" stroke-width="3"/><circle cx="74" cy="37" r="2.5" fill="#101419"/><circle cx="80" cy="37" r="2.5" fill="#101419"/><ellipse cx="83" cy="47" rx="5" ry="4" fill="#161416"/></g><g data-frame="north-0" transform="translate(0 384)"><ellipse cx="64" cy="109" rx="28" ry="7" fill="#05080d" opacity=".38"/><ellipse cx="64" cy="69" rx="25" ry="34" fill="#a87a4d"/><path d="M45 55Q64 43 83 55L78 81Q64 92 50 81Z" fill="#332c2c"/><ellipse cx="64" cy="39" rx="17" ry="16" fill="#a87a4d"/><path d="M48 83L39 111M60 89L62 114M70 89L68 114M82 83L91 111" stroke="#9d7148" stroke-width="9" stroke-linecap="round"/><path d="M42 61Q26 57 23 44" stroke="#332c2c" stroke-width="8" fill="none" stroke-linecap="round"/><path d="M52 31L45 15L59 25M76 31L83 15L69 25" fill="#332c2c" stroke="#332c2c" stroke-width="3"/><circle cx="58" cy="38" r="2.5" fill="#101419"/><circle cx="70" cy="38" r="2.5" fill="#101419"/><ellipse cx="64" cy="48" rx="5" ry="4" fill="#161416"/></g><g data-frame="north-1" transform="translate(128 384)"><ellipse cx="64" cy="109" rx="28" ry="7" fill="#05080d" opacity=".38"/><ellipse cx="64" cy="68" rx="25" ry="34" fill="#a87a4d"/><path d="M45 54Q64 42 83 54L78 80Q64 91 50 80Z" fill="#332c2c"/><ellipse cx="64" cy="38" rx="17" ry="16" fill="#a87a4d"/><path d="M48 82L43 111M60 88L58 114M70 88L72 114M82 82L87 111" stroke="#9d7148" stroke-width="9" stroke-linecap="round"/><path d="M42 60Q26 56 23 43" stroke="#332c2c" stroke-width="8" fill="none" stroke-linecap="round"/><path d="M52 30L45 14L59 24M76 30L83 14L69 24" fill="#332c2c" stroke="#332c2c" stroke-width="3"/><circle cx="58" cy="37" r="2.5" fill="#101419"/><circle cx="70" cy="37" r="2.5" fill="#101419"/><ellipse cx="64" cy="47" rx="5" ry="4" fill="#161416"/></g><g data-frame="north-2" transform="translate(256 384)"><ellipse cx="64" cy="109" rx="28" ry="7" fill="#05080d" opacity=".38"/><ellipse cx="64" cy="67" rx="25" ry="34" fill="#a87a4d"/><path d="M45 53Q64 41 83 53L78 79Q64 90 50 79Z" fill="#332c2c"/><ellipse cx="64" cy="37" rx="17" ry="16" fill="#a87a4d"/><path d="M48 81L47 111M60 87L54 114M70 87L76 114M82 81L83 111" stroke="#9d7148" stroke-width="9" stroke-linecap="round"/><path d="M42 59Q26 55 23 42" stroke="#332c2c" stroke-width="8" fill="none" stroke-linecap="round"/><path d="M52 29L45 13L59 23M76 29L83 13L69 23" fill="#332c2c" stroke="#332c2c" stroke-width="3"/><circle cx="58" cy="36" r="2.5" fill="#101419"/><circle cx="70" cy="36" r="2.5" fill="#101419"/><ellipse cx="64" cy="46" rx="5" ry="4" fill="#161416"/></g><g data-frame="north-3" transform="translate(384 384)"><ellipse cx="64" cy="109" rx="28" ry="7" fill="#05080d" opacity=".38"/><ellipse cx="64" cy="68" rx="25" ry="34" fill="#a87a4d"/><path d="M45 54Q64 42 83 54L78 80Q64 91 50 80Z" fill="#332c2c"/><ellipse cx="64" cy="38" rx="17" ry="16" fill="#a87a4d"/><path d="M48 82L43 111M60 88L58 114M70 88L72 114M82 82L87 111" stroke="#9d7148" stroke-width="9" stroke-linecap="round"/><path d="M42 60Q26 56 23 43" stroke="#332c2c" stroke-width="8" fill="none" stroke-linecap="round"/><path d="M52 30L45 14L59 24M76 30L83 14L69 24" fill="#332c2c" stroke="#332c2c" stroke-width="3"/><circle cx="58" cy="37" r="2.5" fill="#101419"/><circle cx="70" cy="37" r="2.5" fill="#101419"/><ellipse cx="64" cy="47" rx="5" ry="4" fill="#161416"/></g></svg>
