<svg xmlns="http://www.w3.org/2000/svg" viewBox="0 0 512 512"><title>Tintable human bottom clothing layer</title><defs><g id="b0"><path d="M50 76L46 108Q47 116 56 114L63 78Z" fill="#fff"/><path d="M78 76L82 108Q81 116 72 114L65 78Z" fill="#fff"/></g><g id="b1"><path d="M50 75L49 108Q50 116 59 114L63 78Z" fill="#fff"/><path d="M78 75L79 108Q78 116 69 114L65 78Z" fill="#fff"/></g><g id="b2"><path d="M50 74L52 108Q53 116 62 114L63 78Z" fill="#fff"/><path d="M78 74L76 108Q75 116 66 114L65 78Z" fill="#fff"/></g><g id="b3"><path d="M50 75L49 108Q50 116 59 114L63 78Z" fill="#fff"/><path d="M78 75L79 108Q78 116 69 114L65 78Z" fill="#fff"/></g></defs><g transform="translate(0 0)"><use href="#b0"/></g><g transform="translate(128 0)"><use href="#b1"/></g><g transform="translate(256 0)"><use href="#b2"/></g><g transform="translate(384 0)"><use href="#b3"/></g><g transform="translate(0 384)"><use href="#b0"/></g><g transform="translate(128 384)"><use href="#b1"/></g><g transform="translate(256 384)"><use href="#b2"/></g><g transform="translate(384 384)"><use href="#b3"/></g></svg>