<svg xmlns="http://www.w3.org/2000/svg" viewBox="0 0 512 512"><title>Tintable human top clothing layer</title><defs><g id="t0"><path d="M43 49Q64 41 85 49L80 81Q64 88 48 81Z" fill="#fff"/><path d="M45 52Q31 66 32 89" stroke="#fff" stroke-width="11" fill="none" stroke-linecap="round"/><path d="M83 52Q97 66 96 89" stroke="#fff" stroke-width="11" fill="none" stroke-linecap="round"/></g><g id="t1"><path d="M43 48Q64 40 85 48L80 80Q64 87 48 80Z" fill="#fff"/><path d="M45 51Q35 65 36 88" stroke="#fff" stroke-width="11" fill="none" stroke-linecap="round"/><path d="M83 51Q93 65 92 88" stroke="#fff" stroke-width="11" fill="none" stroke-linecap="round"/></g><g id="t2"><path d="M43 47Q64 39 85 47L80 79Q64 86 48 79Z" fill="#fff"/><path d="M45 50Q39 64 40 87" stroke="#fff" stroke-width="11" fill="none" stroke-linecap="round"/><path d="M83 50Q89 64 88 87" stroke="#fff" stroke-width="11" fill="none" stroke-linecap="round"/></g><g id="t3"><path d="M43 48Q64 40 85 48L80 80Q64 87 48 80Z" fill="#fff"/><path d="M45 51Q34 65 35 88" stroke="#fff" stroke-width="11" fill="none" stroke-linecap="round"/><path d="M83 51Q94 65 93 88" stroke="#fff" stroke-width="11" fill="none" stroke-linecap="round"/></g></defs><g transform="translate(0 0)"><use href="#t0"/></g><g transform="translate(128 0)"><use href="#t1"/></g><g transform="translate(256 0)"><use href="#t2"/></g><g transform="translate(384 0)"><use href="#t3"/></g><g transform="translate(0 384)"><use href="#t0"/></g><g transform="translate(128 384)"><use href="#t1"/></g><g transform="translate(256 384)"><use href="#t2"/></g><g transform="translate(384 384)"><use href="#t3"/></g></svg>