<svg xmlns="http://www.w3.org/2000/svg" viewBox="0 0 512 512"><title>Tintable human east west bottom clothing layer</title><defs><g id="b0"><path d="M52 69L22 72Q15 73 14 80L48 84Z" fill="#fff"/><path d="M51 78L24 91Q18 94 19 101L55 90Z" fill="#fff"/></g><g id="b1"><path d="M52 69L18 66Q12 66 11 73L48 84Z" fill="#fff"/><path d="M51 78L31 98Q27 102 30 108L55 90Z" fill="#fff"/></g><g id="b2"><path d="M52 69L30 91Q26 96 30 101L55 84Z" fill="#fff"/><path d="M51 78L17 82Q11 83 10 90L55 90Z" fill="#fff"/></g><g id="b3"><path d="M52 69L24 61Q18 60 15 67L48 84Z" fill="#fff"/><path d="M51 78L25 96Q21 100 24 106L55 90Z" fill="#fff"/></g></defs><g transform="translate(0 0)"><use href="#b0"/></g><g transform="translate(128 0)"><use href="#b1"/></g><g transform="translate(256 0)"><use href="#b2"/></g><g transform="translate(384 0)"><use href="#b3"/></g></svg>