<svg xmlns="http://www.w3.org/2000/svg" viewBox="0 0 512 512"><title>Tintable human east west top clothing layer</title><defs><g id="t0"><path d="M43 48Q61 42 80 49L82 82Q63 89 43 81Z" fill="#fff"/><path d="M58 49Q52 37 57 29" stroke="#fff" stroke-width="11" fill="none" stroke-linecap="round"/><path d="M64 82Q61 95 70 101" stroke="#fff" stroke-width="11" fill="none" stroke-linecap="round"/></g><g id="t1"><path d="M43 48Q61 42 80 49L82 82Q63 89 43 81Z" fill="#fff"/><path d="M58 49Q47 39 48 31" stroke="#fff" stroke-width="11" fill="none" stroke-linecap="round"/><path d="M64 82Q70 94 80 96" stroke="#fff" stroke-width="11" fill="none" stroke-linecap="round"/></g><g id="t2"><path d="M43 48Q61 42 80 49L82 82Q63 89 43 81Z" fill="#fff"/><path d="M58 49Q66 37 76 32" stroke="#fff" stroke-width="11" fill="none" stroke-linecap="round"/><path d="M64 82Q53 94 53 103" stroke="#fff" stroke-width="11" fill="none" stroke-linecap="round"/></g><g id="t3"><path d="M43 48Q61 42 80 49L82 82Q63 89 43 81Z" fill="#fff"/><path d="M58 49Q48 41 51 33" stroke="#fff" stroke-width="11" fill="none" stroke-linecap="round"/><path d="M64 82Q69 94 77 100" stroke="#fff" stroke-width="11" fill="none" stroke-linecap="round"/></g></defs><g transform="translate(0 0)"><use href="#t0"/></g><g transform="translate(128 0)"><use href="#t1"/></g><g transform="translate(256 0)"><use href="#t2"/></g><g transform="translate(384 0)"><use href="#t3"/></g></svg>