<svg xmlns="http://www.w3.org/2000/svg" viewBox="0 0 512 512"><title>Lab subject mature anime true top down 8 FPS sheet</title><rect width="512" height="512" fill="none"/><g data-frame="south-0" transform="translate(0 0)">
        <ellipse cx="64" cy="111" rx="25" ry="7" fill="#05080d" opacity=".4"/>
        <path d="M50 77L46 108Q47 116 56 114L63 78Z" fill="#30383f"/>
        <path d="M78 77L82 108Q81 116 72 114L65 78Z" fill="#30383f"/>
        <path d="M41 108Q49 104 58 109V117H41Z" fill="#10151a"/>
        <path d="M70 109Q79 104 87 108V117H70Z" fill="#10151a"/>
        <path d="M43 51Q64 43 85 51L80 82Q64 89 48 82Z" fill="#4d5d66"/>
        <path d="M48 55Q64 49 80 55" stroke="#91a5ad" stroke-width="4" stroke-linecap="round" opacity=".8"/>
        <path d="M50 69Q64 75 78 69" stroke="#fff" stroke-opacity=".14" stroke-width="3" fill="none"/>
        <path d="M45 54Q31 67 32 90" stroke="#4d5d66" stroke-width="11" fill="none" stroke-linecap="round"/>
        <circle cx="32" cy="91" r="5.5" fill="#6f493d"/>
        <path d="M83 54Q97 67 96 90" stroke="#4d5d66" stroke-width="11" fill="none" stroke-linecap="round"/>
        <circle cx="96" cy="91" r="5.5" fill="#6f493d"/>
        <rect x="58" y="43" width="12" height="11" rx="5" fill="#6f493d"/>
        <ellipse cx="64" cy="33" rx="16.5" ry="18" fill="#6f493d"/><path d="M47 30Q51 13 66 12Q82 14 80 32Q68 23 47 30Z" fill="#17202a"/><path d="M56 35h4M68 35h4" stroke="#251714" stroke-width="2.2" stroke-linecap="round"/><path d="M60 43Q64 45 68 43" stroke="#7d403b" stroke-width="1.8" fill="none" stroke-linecap="round"/>
        <path d="M54 60H74" stroke="#74e6ff" stroke-width="3.5" stroke-linecap="round"/>
        <path d="M47 51Q64 44 81 51" stroke="#c08d78" stroke-opacity=".12" stroke-width="3" fill="none"/>
      </g><g data-frame="south-1" transform="translate(128 0)">
        <ellipse cx="64" cy="111" rx="25" ry="7" fill="#05080d" opacity=".4"/>
        <path d="M50 76L49 108Q50 116 59 114L63 78Z" fill="#30383f"/>
        <path d="M78 76L79 108Q78 116 69 114L65 78Z" fill="#30383f"/>
        <path d="M44 108Q52 104 61 109V117H44Z" fill="#10151a"/>
        <path d="M67 109Q76 104 84 108V117H67Z" fill="#10151a"/>
        <path d="M43 50Q64 42 85 50L80 81Q64 88 48 81Z" fill="#4d5d66"/>
        <path d="M48 54Q64 48 80 54" stroke="#91a5ad" stroke-width="4" stroke-linecap="round" opacity=".8"/>
        <path d="M50 68Q64 74 78 68" stroke="#fff" stroke-opacity=".14" stroke-width="3" fill="none"/>
        <path d="M45 53Q34 66 35 89" stroke="#4d5d66" stroke-width="11" fill="none" stroke-linecap="round"/>
        <circle cx="35" cy="90" r="5.5" fill="#6f493d"/>
        <path d="M83 53Q94 66 93 89" stroke="#4d5d66" stroke-width="11" fill="none" stroke-linecap="round"/>
        <circle cx="93" cy="90" r="5.5" fill="#6f493d"/>
        <rect x="58" y="42" width="12" height="11" rx="5" fill="#6f493d"/>
        <ellipse cx="64" cy="32" rx="16.5" ry="18" fill="#6f493d"/><path d="M47 29Q51 12 66 11Q82 13 80 31Q68 22 47 29Z" fill="#17202a"/><path d="M56 34h4M68 34h4" stroke="#251714" stroke-width="2.2" stroke-linecap="round"/><path d="M60 42Q64 44 68 42" stroke="#7d403b" stroke-width="1.8" fill="none" stroke-linecap="round"/>
        <path d="M54 59H74" stroke="#74e6ff" stroke-width="3.5" stroke-linecap="round"/>
        <path d="M47 50Q64 43 81 50" stroke="#c08d78" stroke-opacity=".12" stroke-width="3" fill="none"/>
      </g><g data-frame="south-2" transform="translate(256 0)">
        <ellipse cx="64" cy="111" rx="25" ry="7" fill="#05080d" opacity=".4"/>
        <path d="M50 75L52 108Q53 116 62 114L63 78Z" fill="#30383f"/>
        <path d="M78 75L76 108Q75 116 66 114L65 78Z" fill="#30383f"/>
        <path d="M47 108Q55 104 64 109V117H47Z" fill="#10151a"/>
        <path d="M64 109Q73 104 81 108V117H64Z" fill="#10151a"/>
        <path d="M43 49Q64 41 85 49L80 80Q64 87 48 80Z" fill="#4d5d66"/>
        <path d="M48 53Q64 47 80 53" stroke="#91a5ad" stroke-width="4" stroke-linecap="round" opacity=".8"/>
        <path d="M50 67Q64 73 78 67" stroke="#fff" stroke-opacity=".14" stroke-width="3" fill="none"/>
        <path d="M45 52Q37 65 38 88" stroke="#4d5d66" stroke-width="11" fill="none" stroke-linecap="round"/>
        <circle cx="38" cy="89" r="5.5" fill="#6f493d"/>
        <path d="M83 52Q91 65 90 88" stroke="#4d5d66" stroke-width="11" fill="none" stroke-linecap="round"/>
        <circle cx="90" cy="89" r="5.5" fill="#6f493d"/>
        <rect x="58" y="41" width="12" height="11" rx="5" fill="#6f493d"/>
        <ellipse cx="64" cy="31" rx="16.5" ry="18" fill="#6f493d"/><path d="M47 28Q51 11 66 10Q82 12 80 30Q68 21 47 28Z" fill="#17202a"/><path d="M56 33h4M68 33h4" stroke="#251714" stroke-width="2.2" stroke-linecap="round"/><path d="M60 41Q64 43 68 41" stroke="#7d403b" stroke-width="1.8" fill="none" stroke-linecap="round"/>
        <path d="M54 58H74" stroke="#74e6ff" stroke-width="3.5" stroke-linecap="round"/>
        <path d="M47 49Q64 42 81 49" stroke="#c08d78" stroke-opacity=".12" stroke-width="3" fill="none"/>
      </g><g data-frame="south-3" transform="translate(384 0)">
        <ellipse cx="64" cy="111" rx="25" ry="7" fill="#05080d" opacity=".4"/>
        <path d="M50 76L49 108Q50 116 59 114L63 78Z" fill="#30383f"/>
        <path d="M78 76L79 108Q78 116 69 114L65 78Z" fill="#30383f"/>
        <path d="M44 108Q52 104 61 109V117H44Z" fill="#10151a"/>
        <path d="M67 109Q76 104 84 108V117H67Z" fill="#10151a"/>
        <path d="M43 50Q64 42 85 50L80 81Q64 88 48 81Z" fill="#4d5d66"/>
        <path d="M48 54Q64 48 80 54" stroke="#91a5ad" stroke-width="4" stroke-linecap="round" opacity=".8"/>
        <path d="M50 68Q64 74 78 68" stroke="#fff" stroke-opacity=".14" stroke-width="3" fill="none"/>
        <path d="M45 53Q34 66 35 89" stroke="#4d5d66" stroke-width="11" fill="none" stroke-linecap="round"/>
        <circle cx="35" cy="90" r="5.5" fill="#6f493d"/>
        <path d="M83 53Q94 66 93 89" stroke="#4d5d66" stroke-width="11" fill="none" stroke-linecap="round"/>
        <circle cx="93" cy="90" r="5.5" fill="#6f493d"/>
        <rect x="58" y="42" width="12" height="11" rx="5" fill="#6f493d"/>
        <ellipse cx="64" cy="32" rx="16.5" ry="18" fill="#6f493d"/><path d="M47 29Q51 12 66 11Q82 13 80 31Q68 22 47 29Z" fill="#17202a"/><path d="M56 34h4M68 34h4" stroke="#251714" stroke-width="2.2" stroke-linecap="round"/><path d="M60 42Q64 44 68 42" stroke="#7d403b" stroke-width="1.8" fill="none" stroke-linecap="round"/>
        <path d="M54 59H74" stroke="#74e6ff" stroke-width="3.5" stroke-linecap="round"/>
        <path d="M47 50Q64 43 81 50" stroke="#c08d78" stroke-opacity=".12" stroke-width="3" fill="none"/>
      </g><g data-frame="west-0" transform="translate(0 128)">
        <ellipse cx="64" cy="111" rx="25" ry="7" fill="#05080d" opacity=".4"/>
        <path d="M50 77L46 108Q47 116 56 114L63 78Z" fill="#30383f"/>
        <path d="M78 77L82 108Q81 116 72 114L65 78Z" fill="#30383f"/>
        <path d="M41 108Q49 104 58 109V117H41Z" fill="#10151a"/>
        <path d="M70 109Q79 104 87 108V117H70Z" fill="#10151a"/>
        <path d="M43 51Q64 43 85 51L80 82Q64 89 48 82Z" fill="#4d5d66"/>
        <path d="M48 55Q64 49 80 55" stroke="#91a5ad" stroke-width="4" stroke-linecap="round" opacity=".8"/>
        <path d="M50 69Q64 75 78 69" stroke="#fff" stroke-opacity=".14" stroke-width="3" fill="none"/>
        <path d="M45 54Q29 67 30 90" stroke="#4d5d66" stroke-width="11" fill="none" stroke-linecap="round"/>
        <circle cx="30" cy="91" r="5.5" fill="#6f493d"/>
        <path d="M83 54Q91 67 90 90" stroke="#4d5d66" stroke-width="11" fill="none" stroke-linecap="round"/>
        <circle cx="90" cy="91" r="5.5" fill="#6f493d"/>
        <rect x="58" y="43" width="12" height="11" rx="5" fill="#6f493d"/>
        <ellipse cx="57" cy="33" rx="16.5" ry="18" fill="#6f493d"/><path d="M40 30Q44 13 59 12Q75 14 73 32Q61 23 40 30Z" fill="#17202a"/><path d="M49 35h4M61 35h4" stroke="#251714" stroke-width="2.2" stroke-linecap="round"/><path d="M53 43Q57 45 61 43" stroke="#7d403b" stroke-width="1.8" fill="none" stroke-linecap="round"/>
        <path d="M54 60H74" stroke="#74e6ff" stroke-width="3.5" stroke-linecap="round"/>
        <path d="M47 51Q64 44 81 51" stroke="#c08d78" stroke-opacity=".12" stroke-width="3" fill="none"/>
      </g><g data-frame="west-1" transform="translate(128 128)">
        <ellipse cx="64" cy="111" rx="25" ry="7" fill="#05080d" opacity=".4"/>
        <path d="M50 76L49 108Q50 116 59 114L63 78Z" fill="#30383f"/>
        <path d="M78 76L79 108Q78 116 69 114L65 78Z" fill="#30383f"/>
        <path d="M44 108Q52 104 61 109V117H44Z" fill="#10151a"/>
        <path d="M67 109Q76 104 84 108V117H67Z" fill="#10151a"/>
        <path d="M43 50Q64 42 85 50L80 81Q64 88 48 81Z" fill="#4d5d66"/>
        <path d="M48 54Q64 48 80 54" stroke="#91a5ad" stroke-width="4" stroke-linecap="round" opacity=".8"/>
        <path d="M50 68Q64 74 78 68" stroke="#fff" stroke-opacity=".14" stroke-width="3" fill="none"/>
        <path d="M45 53Q29 66 30 89" stroke="#4d5d66" stroke-width="11" fill="none" stroke-linecap="round"/>
        <circle cx="30" cy="90" r="5.5" fill="#6f493d"/>
        <path d="M83 53Q91 66 90 89" stroke="#4d5d66" stroke-width="11" fill="none" stroke-linecap="round"/>
        <circle cx="90" cy="90" r="5.5" fill="#6f493d"/>
        <rect x="58" y="42" width="12" height="11" rx="5" fill="#6f493d"/>
        <ellipse cx="57" cy="32" rx="16.5" ry="18" fill="#6f493d"/><path d="M40 29Q44 12 59 11Q75 13 73 31Q61 22 40 29Z" fill="#17202a"/><path d="M49 34h4M61 34h4" stroke="#251714" stroke-width="2.2" stroke-linecap="round"/><path d="M53 42Q57 44 61 42" stroke="#7d403b" stroke-width="1.8" fill="none" stroke-linecap="round"/>
        <path d="M54 59H74" stroke="#74e6ff" stroke-width="3.5" stroke-linecap="round"/>
        <path d="M47 50Q64 43 81 50" stroke="#c08d78" stroke-opacity=".12" stroke-width="3" fill="none"/>
      </g><g data-frame="west-2" transform="translate(256 128)">
        <ellipse cx="64" cy="111" rx="25" ry="7" fill="#05080d" opacity=".4"/>
        <path d="M50 75L52 108Q53 116 62 114L63 78Z" fill="#30383f"/>
        <path d="M78 75L76 108Q75 116 66 114L65 78Z" fill="#30383f"/>
        <path d="M47 108Q55 104 64 109V117H47Z" fill="#10151a"/>
        <path d="M64 109Q73 104 81 108V117H64Z" fill="#10151a"/>
        <path d="M43 49Q64 41 85 49L80 80Q64 87 48 80Z" fill="#4d5d66"/>
        <path d="M48 53Q64 47 80 53" stroke="#91a5ad" stroke-width="4" stroke-linecap="round" opacity=".8"/>
        <path d="M50 67Q64 73 78 67" stroke="#fff" stroke-opacity=".14" stroke-width="3" fill="none"/>
        <path d="M45 52Q29 65 30 88" stroke="#4d5d66" stroke-width="11" fill="none" stroke-linecap="round"/>
        <circle cx="30" cy="89" r="5.5" fill="#6f493d"/>
        <path d="M83 52Q91 65 90 88" stroke="#4d5d66" stroke-width="11" fill="none" stroke-linecap="round"/>
        <circle cx="90" cy="89" r="5.5" fill="#6f493d"/>
        <rect x="58" y="41" width="12" height="11" rx="5" fill="#6f493d"/>
        <ellipse cx="57" cy="31" rx="16.5" ry="18" fill="#6f493d"/><path d="M40 28Q44 11 59 10Q75 12 73 30Q61 21 40 28Z" fill="#17202a"/><path d="M49 33h4M61 33h4" stroke="#251714" stroke-width="2.2" stroke-linecap="round"/><path d="M53 41Q57 43 61 41" stroke="#7d403b" stroke-width="1.8" fill="none" stroke-linecap="round"/>
        <path d="M54 58H74" stroke="#74e6ff" stroke-width="3.5" stroke-linecap="round"/>
        <path d="M47 49Q64 42 81 49" stroke="#c08d78" stroke-opacity=".12" stroke-width="3" fill="none"/>
      </g><g data-frame="west-3" transform="translate(384 128)">
        <ellipse cx="64" cy="111" rx="25" ry="7" fill="#05080d" opacity=".4"/>
        <path d="M50 76L49 108Q50 116 59 114L63 78Z" fill="#30383f"/>
        <path d="M78 76L79 108Q78 116 69 114L65 78Z" fill="#30383f"/>
        <path d="M44 108Q52 104 61 109V117H44Z" fill="#10151a"/>
        <path d="M67 109Q76 104 84 108V117H67Z" fill="#10151a"/>
        <path d="M43 50Q64 42 85 50L80 81Q64 88 48 81Z" fill="#4d5d66"/>
        <path d="M48 54Q64 48 80 54" stroke="#91a5ad" stroke-width="4" stroke-linecap="round" opacity=".8"/>
        <path d="M50 68Q64 74 78 68" stroke="#fff" stroke-opacity=".14" stroke-width="3" fill="none"/>
        <path d="M45 53Q29 66 30 89" stroke="#4d5d66" stroke-width="11" fill="none" stroke-linecap="round"/>
        <circle cx="30" cy="90" r="5.5" fill="#6f493d"/>
        <path d="M83 53Q91 66 90 89" stroke="#4d5d66" stroke-width="11" fill="none" stroke-linecap="round"/>
        <circle cx="90" cy="90" r="5.5" fill="#6f493d"/>
        <rect x="58" y="42" width="12" height="11" rx="5" fill="#6f493d"/>
        <ellipse cx="57" cy="32" rx="16.5" ry="18" fill="#6f493d"/><path d="M40 29Q44 12 59 11Q75 13 73 31Q61 22 40 29Z" fill="#17202a"/><path d="M49 34h4M61 34h4" stroke="#251714" stroke-width="2.2" stroke-linecap="round"/><path d="M53 42Q57 44 61 42" stroke="#7d403b" stroke-width="1.8" fill="none" stroke-linecap="round"/>
        <path d="M54 59H74" stroke="#74e6ff" stroke-width="3.5" stroke-linecap="round"/>
        <path d="M47 50Q64 43 81 50" stroke="#c08d78" stroke-opacity=".12" stroke-width="3" fill="none"/>
      </g><g data-frame="east-0" transform="translate(0 256)">
        <ellipse cx="64" cy="111" rx="25" ry="7" fill="#05080d" opacity=".4"/>
        <path d="M50 77L46 108Q47 116 56 114L63 78Z" fill="#30383f"/>
        <path d="M78 77L82 108Q81 116 72 114L65 78Z" fill="#30383f"/>
        <path d="M41 108Q49 104 58 109V117H41Z" fill="#10151a"/>
        <path d="M70 109Q79 104 87 108V117H70Z" fill="#10151a"/>
        <path d="M43 51Q64 43 85 51L80 82Q64 89 48 82Z" fill="#4d5d66"/>
        <path d="M48 55Q64 49 80 55" stroke="#91a5ad" stroke-width="4" stroke-linecap="round" opacity=".8"/>
        <path d="M50 69Q64 75 78 69" stroke="#fff" stroke-opacity=".14" stroke-width="3" fill="none"/>
        <path d="M45 54Q37 67 38 90" stroke="#4d5d66" stroke-width="11" fill="none" stroke-linecap="round"/>
        <circle cx="38" cy="91" r="5.5" fill="#6f493d"/>
        <path d="M83 54Q99 67 98 90" stroke="#4d5d66" stroke-width="11" fill="none" stroke-linecap="round"/>
        <circle cx="98" cy="91" r="5.5" fill="#6f493d"/>
        <rect x="58" y="43" width="12" height="11" rx="5" fill="#6f493d"/>
        <ellipse cx="71" cy="33" rx="16.5" ry="18" fill="#6f493d"/><path d="M54 30Q58 13 73 12Q89 14 87 32Q75 23 54 30Z" fill="#17202a"/><path d="M63 35h4M75 35h4" stroke="#251714" stroke-width="2.2" stroke-linecap="round"/><path d="M67 43Q71 45 75 43" stroke="#7d403b" stroke-width="1.8" fill="none" stroke-linecap="round"/>
        <path d="M54 60H74" stroke="#74e6ff" stroke-width="3.5" stroke-linecap="round"/>
        <path d="M47 51Q64 44 81 51" stroke="#c08d78" stroke-opacity=".12" stroke-width="3" fill="none"/>
      </g><g data-frame="east-1" transform="translate(128 256)">
        <ellipse cx="64" cy="111" rx="25" ry="7" fill="#05080d" opacity=".4"/>
        <path d="M50 76L49 108Q50 116 59 114L63 78Z" fill="#30383f"/>
        <path d="M78 76L79 108Q78 116 69 114L65 78Z" fill="#30383f"/>
        <path d="M44 108Q52 104 61 109V117H44Z" fill="#10151a"/>
        <path d="M67 109Q76 104 84 108V117H67Z" fill="#10151a"/>
        <path d="M43 50Q64 42 85 50L80 81Q64 88 48 81Z" fill="#4d5d66"/>
        <path d="M48 54Q64 48 80 54" stroke="#91a5ad" stroke-width="4" stroke-linecap="round" opacity=".8"/>
        <path d="M50 68Q64 74 78 68" stroke="#fff" stroke-opacity=".14" stroke-width="3" fill="none"/>
        <path d="M45 53Q37 66 38 89" stroke="#4d5d66" stroke-width="11" fill="none" stroke-linecap="round"/>
        <circle cx="38" cy="90" r="5.5" fill="#6f493d"/>
        <path d="M83 53Q99 66 98 89" stroke="#4d5d66" stroke-width="11" fill="none" stroke-linecap="round"/>
        <circle cx="98" cy="90" r="5.5" fill="#6f493d"/>
        <rect x="58" y="42" width="12" height="11" rx="5" fill="#6f493d"/>
        <ellipse cx="71" cy="32" rx="16.5" ry="18" fill="#6f493d"/><path d="M54 29Q58 12 73 11Q89 13 87 31Q75 22 54 29Z" fill="#17202a"/><path d="M63 34h4M75 34h4" stroke="#251714" stroke-width="2.2" stroke-linecap="round"/><path d="M67 42Q71 44 75 42" stroke="#7d403b" stroke-width="1.8" fill="none" stroke-linecap="round"/>
        <path d="M54 59H74" stroke="#74e6ff" stroke-width="3.5" stroke-linecap="round"/>
        <path d="M47 50Q64 43 81 50" stroke="#c08d78" stroke-opacity=".12" stroke-width="3" fill="none"/>
      </g><g data-frame="east-2" transform="translate(256 256)">
        <ellipse cx="64" cy="111" rx="25" ry="7" fill="#05080d" opacity=".4"/>
        <path d="M50 75L52 108Q53 116 62 114L63 78Z" fill="#30383f"/>
        <path d="M78 75L76 108Q75 116 66 114L65 78Z" fill="#30383f"/>
        <path d="M47 108Q55 104 64 109V117H47Z" fill="#10151a"/>
        <path d="M64 109Q73 104 81 108V117H64Z" fill="#10151a"/>
        <path d="M43 49Q64 41 85 49L80 80Q64 87 48 80Z" fill="#4d5d66"/>
        <path d="M48 53Q64 47 80 53" stroke="#91a5ad" stroke-width="4" stroke-linecap="round" opacity=".8"/>
        <path d="M50 67Q64 73 78 67" stroke="#fff" stroke-opacity=".14" stroke-width="3" fill="none"/>
        <path d="M45 52Q37 65 38 88" stroke="#4d5d66" stroke-width="11" fill="none" stroke-linecap="round"/>
        <circle cx="38" cy="89" r="5.5" fill="#6f493d"/>
        <path d="M83 52Q99 65 98 88" stroke="#4d5d66" stroke-width="11" fill="none" stroke-linecap="round"/>
        <circle cx="98" cy="89" r="5.5" fill="#6f493d"/>
        <rect x="58" y="41" width="12" height="11" rx="5" fill="#6f493d"/>
        <ellipse cx="71" cy="31" rx="16.5" ry="18" fill="#6f493d"/><path d="M54 28Q58 11 73 10Q89 12 87 30Q75 21 54 28Z" fill="#17202a"/><path d="M63 33h4M75 33h4" stroke="#251714" stroke-width="2.2" stroke-linecap="round"/><path d="M67 41Q71 43 75 41" stroke="#7d403b" stroke-width="1.8" fill="none" stroke-linecap="round"/>
        <path d="M54 58H74" stroke="#74e6ff" stroke-width="3.5" stroke-linecap="round"/>
        <path d="M47 49Q64 42 81 49" stroke="#c08d78" stroke-opacity=".12" stroke-width="3" fill="none"/>
      </g><g data-frame="east-3" transform="translate(384 256)">
        <ellipse cx="64" cy="111" rx="25" ry="7" fill="#05080d" opacity=".4"/>
        <path d="M50 76L49 108Q50 116 59 114L63 78Z" fill="#30383f"/>
        <path d="M78 76L79 108Q78 116 69 114L65 78Z" fill="#30383f"/>
        <path d="M44 108Q52 104 61 109V117H44Z" fill="#10151a"/>
        <path d="M67 109Q76 104 84 108V117H67Z" fill="#10151a"/>
        <path d="M43 50Q64 42 85 50L80 81Q64 88 48 81Z" fill="#4d5d66"/>
        <path d="M48 54Q64 48 80 54" stroke="#91a5ad" stroke-width="4" stroke-linecap="round" opacity=".8"/>
        <path d="M50 68Q64 74 78 68" stroke="#fff" stroke-opacity=".14" stroke-width="3" fill="none"/>
        <path d="M45 53Q37 66 38 89" stroke="#4d5d66" stroke-width="11" fill="none" stroke-linecap="round"/>
        <circle cx="38" cy="90" r="5.5" fill="#6f493d"/>
        <path d="M83 53Q99 66 98 89" stroke="#4d5d66" stroke-width="11" fill="none" stroke-linecap="round"/>
        <circle cx="98" cy="90" r="5.5" fill="#6f493d"/>
        <rect x="58" y="42" width="12" height="11" rx="5" fill="#6f493d"/>
        <ellipse cx="71" cy="32" rx="16.5" ry="18" fill="#6f493d"/><path d="M54 29Q58 12 73 11Q89 13 87 31Q75 22 54 29Z" fill="#17202a"/><path d="M63 34h4M75 34h4" stroke="#251714" stroke-width="2.2" stroke-linecap="round"/><path d="M67 42Q71 44 75 42" stroke="#7d403b" stroke-width="1.8" fill="none" stroke-linecap="round"/>
        <path d="M54 59H74" stroke="#74e6ff" stroke-width="3.5" stroke-linecap="round"/>
        <path d="M47 50Q64 43 81 50" stroke="#c08d78" stroke-opacity=".12" stroke-width="3" fill="none"/>
      </g><g data-frame="north-0" transform="translate(0 384)">
        <ellipse cx="64" cy="111" rx="25" ry="7" fill="#05080d" opacity=".4"/>
        <path d="M50 77L46 108Q47 116 56 114L63 78Z" fill="#30383f"/>
        <path d="M78 77L82 108Q81 116 72 114L65 78Z" fill="#30383f"/>
        <path d="M41 108Q49 104 58 109V117H41Z" fill="#10151a"/>
        <path d="M70 109Q79 104 87 108V117H70Z" fill="#10151a"/>
        <path d="M43 51Q64 43 85 51L80 82Q64 89 48 82Z" fill="#4d5d66"/>
        <path d="M48 55Q64 49 80 55" stroke="#91a5ad" stroke-width="4" stroke-linecap="round" opacity=".8"/>
        <path d="M50 69Q64 75 78 69" stroke="#fff" stroke-opacity=".14" stroke-width="3" fill="none"/>
        <path d="M45 54Q31 67 32 90" stroke="#4d5d66" stroke-width="11" fill="none" stroke-linecap="round"/>
        <circle cx="32" cy="91" r="5.5" fill="#6f493d"/>
        <path d="M83 54Q97 67 96 90" stroke="#4d5d66" stroke-width="11" fill="none" stroke-linecap="round"/>
        <circle cx="96" cy="91" r="5.5" fill="#6f493d"/>
        <rect x="58" y="43" width="12" height="11" rx="5" fill="#6f493d"/>
        <ellipse cx="64" cy="32" rx="17" ry="18" fill="#17202a"/><path d="M51 27Q64 16 77 27V45Q64 51 51 45Z" fill="#17202a"/>
        <path d="M54 60H74" stroke="#74e6ff" stroke-width="3.5" stroke-linecap="round"/>
        <path d="M47 51Q64 44 81 51" stroke="#c08d78" stroke-opacity=".12" stroke-width="3" fill="none"/>
      </g><g data-frame="north-1" transform="translate(128 384)">
        <ellipse cx="64" cy="111" rx="25" ry="7" fill="#05080d" opacity=".4"/>
        <path d="M50 76L49 108Q50 116 59 114L63 78Z" fill="#30383f"/>
        <path d="M78 76L79 108Q78 116 69 114L65 78Z" fill="#30383f"/>
        <path d="M44 108Q52 104 61 109V117H44Z" fill="#10151a"/>
        <path d="M67 109Q76 104 84 108V117H67Z" fill="#10151a"/>
        <path d="M43 50Q64 42 85 50L80 81Q64 88 48 81Z" fill="#4d5d66"/>
        <path d="M48 54Q64 48 80 54" stroke="#91a5ad" stroke-width="4" stroke-linecap="round" opacity=".8"/>
        <path d="M50 68Q64 74 78 68" stroke="#fff" stroke-opacity=".14" stroke-width="3" fill="none"/>
        <path d="M45 53Q34 66 35 89" stroke="#4d5d66" stroke-width="11" fill="none" stroke-linecap="round"/>
        <circle cx="35" cy="90" r="5.5" fill="#6f493d"/>
        <path d="M83 53Q94 66 93 89" stroke="#4d5d66" stroke-width="11" fill="none" stroke-linecap="round"/>
        <circle cx="93" cy="90" r="5.5" fill="#6f493d"/>
        <rect x="58" y="42" width="12" height="11" rx="5" fill="#6f493d"/>
        <ellipse cx="64" cy="31" rx="17" ry="18" fill="#17202a"/><path d="M51 26Q64 15 77 26V44Q64 50 51 44Z" fill="#17202a"/>
        <path d="M54 59H74" stroke="#74e6ff" stroke-width="3.5" stroke-linecap="round"/>
        <path d="M47 50Q64 43 81 50" stroke="#c08d78" stroke-opacity=".12" stroke-width="3" fill="none"/>
      </g><g data-frame="north-2" transform="translate(256 384)">
        <ellipse cx="64" cy="111" rx="25" ry="7" fill="#05080d" opacity=".4"/>
        <path d="M50 75L52 108Q53 116 62 114L63 78Z" fill="#30383f"/>
        <path d="M78 75L76 108Q75 116 66 114L65 78Z" fill="#30383f"/>
        <path d="M47 108Q55 104 64 109V117H47Z" fill="#10151a"/>
        <path d="M64 109Q73 104 81 108V117H64Z" fill="#10151a"/>
        <path d="M43 49Q64 41 85 49L80 80Q64 87 48 80Z" fill="#4d5d66"/>
        <path d="M48 53Q64 47 80 53" stroke="#91a5ad" stroke-width="4" stroke-linecap="round" opacity=".8"/>
        <path d="M50 67Q64 73 78 67" stroke="#fff" stroke-opacity=".14" stroke-width="3" fill="none"/>
        <path d="M45 52Q37 65 38 88" stroke="#4d5d66" stroke-width="11" fill="none" stroke-linecap="round"/>
        <circle cx="38" cy="89" r="5.5" fill="#6f493d"/>
        <path d="M83 52Q91 65 90 88" stroke="#4d5d66" stroke-width="11" fill="none" stroke-linecap="round"/>
        <circle cx="90" cy="89" r="5.5" fill="#6f493d"/>
        <rect x="58" y="41" width="12" height="11" rx="5" fill="#6f493d"/>
        <ellipse cx="64" cy="30" rx="17" ry="18" fill="#17202a"/><path d="M51 25Q64 14 77 25V43Q64 49 51 43Z" fill="#17202a"/>
        <path d="M54 58H74" stroke="#74e6ff" stroke-width="3.5" stroke-linecap="round"/>
        <path d="M47 49Q64 42 81 49" stroke="#c08d78" stroke-opacity=".12" stroke-width="3" fill="none"/>
      </g><g data-frame="north-3" transform="translate(384 384)">
        <ellipse cx="64" cy="111" rx="25" ry="7" fill="#05080d" opacity=".4"/>
        <path d="M50 76L49 108Q50 116 59 114L63 78Z" fill="#30383f"/>
        <path d="M78 76L79 108Q78 116 69 114L65 78Z" fill="#30383f"/>
        <path d="M44 108Q52 104 61 109V117H44Z" fill="#10151a"/>
        <path d="M67 109Q76 104 84 108V117H67Z" fill="#10151a"/>
        <path d="M43 50Q64 42 85 50L80 81Q64 88 48 81Z" fill="#4d5d66"/>
        <path d="M48 54Q64 48 80 54" stroke="#91a5ad" stroke-width="4" stroke-linecap="round" opacity=".8"/>
        <path d="M50 68Q64 74 78 68" stroke="#fff" stroke-opacity=".14" stroke-width="3" fill="none"/>
        <path d="M45 53Q34 66 35 89" stroke="#4d5d66" stroke-width="11" fill="none" stroke-linecap="round"/>
        <circle cx="35" cy="90" r="5.5" fill="#6f493d"/>
        <path d="M83 53Q94 66 93 89" stroke="#4d5d66" stroke-width="11" fill="none" stroke-linecap="round"/>
        <circle cx="93" cy="90" r="5.5" fill="#6f493d"/>
        <rect x="58" y="42" width="12" height="11" rx="5" fill="#6f493d"/>
        <ellipse cx="64" cy="31" rx="17" ry="18" fill="#17202a"/><path d="M51 26Q64 15 77 26V44Q64 50 51 44Z" fill="#17202a"/>
        <path d="M54 59H74" stroke="#74e6ff" stroke-width="3.5" stroke-linecap="round"/>
        <path d="M47 50Q64 43 81 50" stroke="#c08d78" stroke-opacity=".12" stroke-width="3" fill="none"/>
      </g></svg>
