<svg xmlns="http://www.w3.org/2000/svg" viewBox="0 0 96 96">
  <defs>
    <filter id="s" x="-20%" y="-20%" width="140%" height="140%"><feDropShadow dx="0" dy="4" stdDeviation="3" flood-color="#000" flood-opacity=".35"/></filter>
  </defs>
  <ellipse cx="48" cy="62" rx="29" ry="17" fill="#000" opacity=".22"/>
  <g filter="url(#s)" stroke="#071018" stroke-linecap="round" stroke-linejoin="round">
    <path d="M34 45 C30 54 29 66 32 80 L42 80 C42 67 43 58 46 49 Z" fill="#111820" stroke-width="3"/>
    <path d="M62 45 C66 54 67 66 64 80 L54 80 C54 67 53 58 50 49 Z" fill="#111820" stroke-width="3"/>
    <path d="M26 36 C29 28 36 24 48 24 C60 24 67 28 70 36 C66 47 62 57 48 58 C34 57 30 47 26 36 Z" fill="#151d28" stroke-width="4"/>
    <path d="M31 35 C40 31 56 31 65 35" fill="none" stroke="#74e6ff" stroke-width="3" opacity=".85"/>
    <path d="M27 39 C19 49 18 58 21 66" fill="none" stroke="#111820" stroke-width="9"/>
    <path d="M69 39 C77 49 78 58 75 66" fill="none" stroke="#111820" stroke-width="9"/>
    <ellipse cx="48" cy="20" rx="20" ry="18" fill="#3a241f" stroke-width="4"/>
    <path d="M28 17 C31 5 41 2 51 4 C63 6 69 12 67 22 C59 16 42 14 28 17 Z" fill="#05070a" stroke-width="3"/>
    <ellipse cx="53" cy="24" rx="7" ry="5" fill="#5a372f" opacity=".65" stroke="none"/>
  </g>
</svg>
