<svg xmlns="http://www.w3.org/2000/svg" viewBox="0 0 512 512"><title>Resident full body east west overhead walk layer</title><style>.skin{fill:#5a342b;stroke:#10151d;stroke-width:2}.hair{fill:#111014;stroke:#10151d;stroke-width:2.2}.under{fill:#151b24;stroke:#10151d;stroke-width:2.2;stroke-linejoin:round}.shoe{fill:#080b10;stroke:#10151d;stroke-width:2}.detail{fill:none;stroke:#2a1715;stroke-width:1.5;stroke-linecap:round}</style><defs><g id="s0"><ellipse cx="64" cy="100" rx="38" ry="10" fill="#05080d" opacity=".22"/><path d="M52 69L22 72Q15 73 14 80L48 84Z" class="under"/><path d="M51 78L24 91Q18 94 19 101L55 90Z" class="under"/><path d="M12 75L26 73L25 82L11 84Z" class="shoe"/><path d="M17 96L30 89L34 98L21 106Z" class="shoe"/><path d="M43 48Q61 42 80 49L82 82Q63 89 43 81Z" class="under"/><path d="M58 49Q52 37 57 29" class="under"/><circle cx="57" cy="27" r="5" class="skin"/><path d="M64 82Q61 95 70 101" class="under"/><circle cx="71" cy="102" r="5" class="skin"/><path d="M78 55H88V74H78Z" class="skin"/><ellipse cx="98" cy="64" rx="19" ry="17" class="skin"/><path d="M84 48Q102 42 114 56L113 68Q102 57 83 58Z" class="hair"/><path d="M108 61L114 63M109 69Q113 70 116 68" class="detail"/></g><g id="s1"><use href="#s0"/><path d="M52 69L18 66Q12 66 11 73L48 84Z" class="under"/><path d="M51 78L31 98Q27 102 30 108L55 90Z" class="under"/><path d="M9 68L23 67L22 76L8 77Z" class="shoe"/><path d="M27 103L38 94L44 102L33 112Z" class="shoe"/><path d="M58 49Q47 39 48 31" class="under"/><circle cx="48" cy="29" r="5" class="skin"/><path d="M64 82Q70 94 80 96" class="under"/><circle cx="82" cy="96" r="5" class="skin"/></g><g id="s2"><use href="#s0"/><path d="M52 69L30 91Q26 96 30 101L55 84Z" class="under"/><path d="M51 78L17 82Q11 83 10 90L55 90Z" class="under"/><path d="M26 96L37 87L43 95L32 105Z" class="shoe"/><path d="M8 84L22 82L23 91L9 94Z" class="shoe"/><path d="M58 49Q66 37 76 32" class="under"/><circle cx="78" cy="31" r="5" class="skin"/><path d="M64 82Q53 94 53 103" class="under"/><circle cx="53" cy="105" r="5" class="skin"/></g><g id="s3"><use href="#s0"/><path d="M52 69L24 61Q18 60 15 67L48 84Z" class="under"/><path d="M51 78L25 96Q21 100 24 106L55 90Z" class="under"/><path d="M13 62L27 63L25 72L11 70Z" class="shoe"/><path d="M21 101L33 92L39 100L28 110Z" class="shoe"/><path d="M58 49Q48 41 51 33" class="under"/><circle cx="51" cy="31" r="5" class="skin"/><path d="M64 82Q69 94 77 100" class="under"/><circle cx="78" cy="101" r="5" class="skin"/></g></defs><g transform="translate(0 0)"><use href="#s0"/></g><g transform="translate(128 0)"><use href="#s1"/></g><g transform="translate(256 0)"><use href="#s2"/></g><g transform="translate(384 0)"><use href="#s3"/></g></svg>