<svg xmlns="http://www.w3.org/2000/svg" width="512" height="512" viewBox="0 0 512 512"><g transform="translate(0 -6) scale(2)"><ellipse cx="32" cy="45" rx="13" ry="4.4" fill="rgba(0,0,0,0.22)"/><g transform="rotate(0 32 33)"><line x1="28.6" y1="43.5" x2="28.6" y2="47.5" stroke="#16181f" stroke-width="4.4" stroke-linecap="round"/><line x1="28.6" y1="43.5" x2="28.6" y2="47.5" stroke="#9c6238" stroke-width="3" stroke-linecap="round"/><ellipse cx="28.6" cy="47.5" rx="3" ry="2.7" fill="#e2ddd2" stroke="#16181f" stroke-width="0.8"/><line x1="35.4" y1="41" x2="35.4" y2="42.5" stroke="#16181f" stroke-width="4.4" stroke-linecap="round"/><line x1="35.4" y1="41" x2="35.4" y2="42.5" stroke="#9c6238" stroke-width="3" stroke-linecap="round"/><ellipse cx="35.4" cy="42.5" rx="3" ry="2.7" fill="#e2ddd2" stroke="#16181f" stroke-width="0.8"/><line x1="21" y1="33" x2="18" y2="44" stroke="#16181f" stroke-width="5.800000000000001" stroke-linecap="round"/><line x1="21" y1="33" x2="18" y2="44" stroke="#9c6238" stroke-width="4.4" stroke-linecap="round"/><ellipse cx="18" cy="44" rx="2.4" ry="2.4" fill="#9c6238" stroke="#16181f" stroke-width="0.8"/><line x1="43" y1="33" x2="45" y2="40" stroke="#16181f" stroke-width="5.800000000000001" stroke-linecap="round"/><line x1="43" y1="33" x2="45" y2="40" stroke="#9c6238" stroke-width="4.4" stroke-linecap="round"/><ellipse cx="45" cy="40" rx="2.4" ry="2.4" fill="#9c6238" stroke="#16181f" stroke-width="0.8"/><ellipse cx="32" cy="39.5" rx="8" ry="5.2" fill="#374d63" stroke="#16181f" stroke-width="0.8"/><ellipse cx="32" cy="33.5" rx="13" ry="9.6" fill="#bf8a2e" stroke="#16181f" stroke-width="0.8"/><path d="M 32 23.9 Q 45 23.9 45 33.5 Q 45 43.1 32 43.1 Z" fill="rgba(20,16,26,0.17)"/><ellipse cx="32" cy="31" rx="8" ry="8" fill="#9c6238" stroke="#16181f" stroke-width="0.8"/><ellipse cx="32" cy="36.76" rx="1.7" ry="2.2" fill="#1d1a20"/><rect x="30" y="35.26" width="4" height="1.3" rx="0.6" fill="#1d1a20"/><ellipse cx="32" cy="30.6" rx="8.7" ry="8.7" fill="#1d1a20"/></g></g><g transform="translate(128 -6) scale(2)"><ellipse cx="32" cy="45" rx="13" ry="4.4" fill="rgba(0,0,0,0.22)"/><g transform="rotate(0 32 33)"><line x1="29.5" y1="42.5" x2="29.5" y2="45.5" stroke="#16181f" stroke-width="4.4" stroke-linecap="round"/><line x1="29.5" y1="42.5" x2="29.5" y2="45.5" stroke="#9c6238" stroke-width="3" stroke-linecap="round"/><ellipse cx="29.5" cy="45.5" rx="3" ry="2.7" fill="#e2ddd2" stroke="#16181f" stroke-width="0.8"/><line x1="34.5" y1="42.5" x2="34.5" y2="45.5" stroke="#16181f" stroke-width="4.4" stroke-linecap="round"/><line x1="34.5" y1="42.5" x2="34.5" y2="45.5" stroke="#9c6238" stroke-width="3" stroke-linecap="round"/><ellipse cx="34.5" cy="45.5" rx="3" ry="2.7" fill="#e2ddd2" stroke="#16181f" stroke-width="0.8"/><line x1="21" y1="33" x2="18.5" y2="42" stroke="#16181f" stroke-width="5.800000000000001" stroke-linecap="round"/><line x1="21" y1="33" x2="18.5" y2="42" stroke="#9c6238" stroke-width="4.4" stroke-linecap="round"/><ellipse cx="18.5" cy="42" rx="2.4" ry="2.4" fill="#9c6238" stroke="#16181f" stroke-width="0.8"/><line x1="43" y1="33" x2="45.5" y2="42" stroke="#16181f" stroke-width="5.800000000000001" stroke-linecap="round"/><line x1="43" y1="33" x2="45.5" y2="42" stroke="#9c6238" stroke-width="4.4" stroke-linecap="round"/><ellipse cx="45.5" cy="42" rx="2.4" ry="2.4" fill="#9c6238" stroke="#16181f" stroke-width="0.8"/><ellipse cx="32" cy="39.5" rx="8" ry="5.2" fill="#374d63" stroke="#16181f" stroke-width="0.8"/><ellipse cx="32" cy="33.5" rx="13" ry="9.6" fill="#bf8a2e" stroke="#16181f" stroke-width="0.8"/><path d="M 32 23.9 Q 45 23.9 45 33.5 Q 45 43.1 32 43.1 Z" fill="rgba(20,16,26,0.17)"/><ellipse cx="32" cy="31" rx="8" ry="8" fill="#9c6238" stroke="#16181f" stroke-width="0.8"/><ellipse cx="32" cy="36.76" rx="1.7" ry="2.2" fill="#1d1a20"/><rect x="30" y="35.26" width="4" height="1.3" rx="0.6" fill="#1d1a20"/><ellipse cx="32" cy="30.6" rx="8.7" ry="8.7" fill="#1d1a20"/></g></g><g transform="translate(256 -6) scale(2)"><ellipse cx="32" cy="45" rx="13" ry="4.4" fill="rgba(0,0,0,0.22)"/><g transform="rotate(0 32 33)"><line x1="28.6" y1="41" x2="28.6" y2="42.5" stroke="#16181f" stroke-width="4.4" stroke-linecap="round"/><line x1="28.6" y1="41" x2="28.6" y2="42.5" stroke="#9c6238" stroke-width="3" stroke-linecap="round"/><ellipse cx="28.6" cy="42.5" rx="3" ry="2.7" fill="#e2ddd2" stroke="#16181f" stroke-width="0.8"/><line x1="35.4" y1="43.5" x2="35.4" y2="47.5" stroke="#16181f" stroke-width="4.4" stroke-linecap="round"/><line x1="35.4" y1="43.5" x2="35.4" y2="47.5" stroke="#9c6238" stroke-width="3" stroke-linecap="round"/><ellipse cx="35.4" cy="47.5" rx="3" ry="2.7" fill="#e2ddd2" stroke="#16181f" stroke-width="0.8"/><line x1="21" y1="33" x2="18" y2="40" stroke="#16181f" stroke-width="5.800000000000001" stroke-linecap="round"/><line x1="21" y1="33" x2="18" y2="40" stroke="#9c6238" stroke-width="4.4" stroke-linecap="round"/><ellipse cx="18" cy="40" rx="2.4" ry="2.4" fill="#9c6238" stroke="#16181f" stroke-width="0.8"/><line x1="43" y1="33" x2="45" y2="44" stroke="#16181f" stroke-width="5.800000000000001" stroke-linecap="round"/><line x1="43" y1="33" x2="45" y2="44" stroke="#9c6238" stroke-width="4.4" stroke-linecap="round"/><ellipse cx="45" cy="44" rx="2.4" ry="2.4" fill="#9c6238" stroke="#16181f" stroke-width="0.8"/><ellipse cx="32" cy="39.5" rx="8" ry="5.2" fill="#374d63" stroke="#16181f" stroke-width="0.8"/><ellipse cx="32" cy="33.5" rx="13" ry="9.6" fill="#bf8a2e" stroke="#16181f" stroke-width="0.8"/><path d="M 32 23.9 Q 45 23.9 45 33.5 Q 45 43.1 32 43.1 Z" fill="rgba(20,16,26,0.17)"/><ellipse cx="32" cy="31" rx="8" ry="8" fill="#9c6238" stroke="#16181f" stroke-width="0.8"/><ellipse cx="32" cy="36.76" rx="1.7" ry="2.2" fill="#1d1a20"/><rect x="30" y="35.26" width="4" height="1.3" rx="0.6" fill="#1d1a20"/><ellipse cx="32" cy="30.6" rx="8.7" ry="8.7" fill="#1d1a20"/></g></g><g transform="translate(384 -6) scale(2)"><ellipse cx="32" cy="45" rx="13" ry="4.4" fill="rgba(0,0,0,0.22)"/><g transform="rotate(0 32 33)"><line x1="29.5" y1="42.5" x2="29.5" y2="45.5" stroke="#16181f" stroke-width="4.4" stroke-linecap="round"/><line x1="29.5" y1="42.5" x2="29.5" y2="45.5" stroke="#9c6238" stroke-width="3" stroke-linecap="round"/><ellipse cx="29.5" cy="45.5" rx="3" ry="2.7" fill="#e2ddd2" stroke="#16181f" stroke-width="0.8"/><line x1="34.5" y1="42.5" x2="34.5" y2="45.5" stroke="#16181f" stroke-width="4.4" stroke-linecap="round"/><line x1="34.5" y1="42.5" x2="34.5" y2="45.5" stroke="#9c6238" stroke-width="3" stroke-linecap="round"/><ellipse cx="34.5" cy="45.5" rx="3" ry="2.7" fill="#e2ddd2" stroke="#16181f" stroke-width="0.8"/><line x1="21" y1="33" x2="18.5" y2="42" stroke="#16181f" stroke-width="5.800000000000001" stroke-linecap="round"/><line x1="21" y1="33" x2="18.5" y2="42" stroke="#9c6238" stroke-width="4.4" stroke-linecap="round"/><ellipse cx="18.5" cy="42" rx="2.4" ry="2.4" fill="#9c6238" stroke="#16181f" stroke-width="0.8"/><line x1="43" y1="33" x2="45.5" y2="42" stroke="#16181f" stroke-width="5.800000000000001" stroke-linecap="round"/><line x1="43" y1="33" x2="45.5" y2="42" stroke="#9c6238" stroke-width="4.4" stroke-linecap="round"/><ellipse cx="45.5" cy="42" rx="2.4" ry="2.4" fill="#9c6238" stroke="#16181f" stroke-width="0.8"/><ellipse cx="32" cy="39.5" rx="8" ry="5.2" fill="#374d63" stroke="#16181f" stroke-width="0.8"/><ellipse cx="32" cy="33.5" rx="13" ry="9.6" fill="#bf8a2e" stroke="#16181f" stroke-width="0.8"/><path d="M 32 23.9 Q 45 23.9 45 33.5 Q 45 43.1 32 43.1 Z" fill="rgba(20,16,26,0.17)"/><ellipse cx="32" cy="31" rx="8" ry="8" fill="#9c6238" stroke="#16181f" stroke-width="0.8"/><ellipse cx="32" cy="36.76" rx="1.7" ry="2.2" fill="#1d1a20"/><rect x="30" y="35.26" width="4" height="1.3" rx="0.6" fill="#1d1a20"/><ellipse cx="32" cy="30.6" rx="8.7" ry="8.7" fill="#1d1a20"/></g></g><g transform="translate(0 122) scale(2)"><ellipse cx="32" cy="45" rx="13" ry="4.4" fill="rgba(0,0,0,0.22)"/><g transform="rotate(90 32 33)"><line x1="28.6" y1="43.5" x2="28.6" y2="47.5" stroke="#16181f" stroke-width="4.4" stroke-linecap="round"/><line x1="28.6" y1="43.5" x2="28.6" y2="47.5" stroke="#9c6238" stroke-width="3" stroke-linecap="round"/><ellipse cx="28.6" cy="47.5" rx="3" ry="2.7" fill="#e2ddd2" stroke="#16181f" stroke-width="0.8"/><line x1="35.4" y1="41" x2="35.4" y2="42.5" stroke="#16181f" stroke-width="4.4" stroke-linecap="round"/><line x1="35.4" y1="41" x2="35.4" y2="42.5" stroke="#9c6238" stroke-width="3" stroke-linecap="round"/><ellipse cx="35.4" cy="42.5" rx="3" ry="2.7" fill="#e2ddd2" stroke="#16181f" stroke-width="0.8"/><line x1="21" y1="33" x2="18" y2="44" stroke="#16181f" stroke-width="5.800000000000001" stroke-linecap="round"/><line x1="21" y1="33" x2="18" y2="44" stroke="#9c6238" stroke-width="4.4" stroke-linecap="round"/><ellipse cx="18" cy="44" rx="2.4" ry="2.4" fill="#9c6238" stroke="#16181f" stroke-width="0.8"/><line x1="43" y1="33" x2="45" y2="40" stroke="#16181f" stroke-width="5.800000000000001" stroke-linecap="round"/><line x1="43" y1="33" x2="45" y2="40" stroke="#9c6238" stroke-width="4.4" stroke-linecap="round"/><ellipse cx="45" cy="40" rx="2.4" ry="2.4" fill="#9c6238" stroke="#16181f" stroke-width="0.8"/><ellipse cx="32" cy="39.5" rx="8" ry="5.2" fill="#374d63" stroke="#16181f" stroke-width="0.8"/><ellipse cx="32" cy="33.5" rx="13" ry="9.6" fill="#bf8a2e" stroke="#16181f" stroke-width="0.8"/><path d="M 32 23.9 Q 45 23.9 45 33.5 Q 45 43.1 32 43.1 Z" fill="rgba(20,16,26,0.17)"/><ellipse cx="32" cy="31" rx="8" ry="8" fill="#9c6238" stroke="#16181f" stroke-width="0.8"/><ellipse cx="32" cy="36.76" rx="1.7" ry="2.2" fill="#1d1a20"/><rect x="30" y="35.26" width="4" height="1.3" rx="0.6" fill="#1d1a20"/><ellipse cx="32" cy="30.6" rx="8.7" ry="8.7" fill="#1d1a20"/></g></g><g transform="translate(128 122) scale(2)"><ellipse cx="32" cy="45" rx="13" ry="4.4" fill="rgba(0,0,0,0.22)"/><g transform="rotate(90 32 33)"><line x1="29.5" y1="42.5" x2="29.5" y2="45.5" stroke="#16181f" stroke-width="4.4" stroke-linecap="round"/><line x1="29.5" y1="42.5" x2="29.5" y2="45.5" stroke="#9c6238" stroke-width="3" stroke-linecap="round"/><ellipse cx="29.5" cy="45.5" rx="3" ry="2.7" fill="#e2ddd2" stroke="#16181f" stroke-width="0.8"/><line x1="34.5" y1="42.5" x2="34.5" y2="45.5" stroke="#16181f" stroke-width="4.4" stroke-linecap="round"/><line x1="34.5" y1="42.5" x2="34.5" y2="45.5" stroke="#9c6238" stroke-width="3" stroke-linecap="round"/><ellipse cx="34.5" cy="45.5" rx="3" ry="2.7" fill="#e2ddd2" stroke="#16181f" stroke-width="0.8"/><line x1="21" y1="33" x2="18.5" y2="42" stroke="#16181f" stroke-width="5.800000000000001" stroke-linecap="round"/><line x1="21" y1="33" x2="18.5" y2="42" stroke="#9c6238" stroke-width="4.4" stroke-linecap="round"/><ellipse cx="18.5" cy="42" rx="2.4" ry="2.4" fill="#9c6238" stroke="#16181f" stroke-width="0.8"/><line x1="43" y1="33" x2="45.5" y2="42" stroke="#16181f" stroke-width="5.800000000000001" stroke-linecap="round"/><line x1="43" y1="33" x2="45.5" y2="42" stroke="#9c6238" stroke-width="4.4" stroke-linecap="round"/><ellipse cx="45.5" cy="42" rx="2.4" ry="2.4" fill="#9c6238" stroke="#16181f" stroke-width="0.8"/><ellipse cx="32" cy="39.5" rx="8" ry="5.2" fill="#374d63" stroke="#16181f" stroke-width="0.8"/><ellipse cx="32" cy="33.5" rx="13" ry="9.6" fill="#bf8a2e" stroke="#16181f" stroke-width="0.8"/><path d="M 32 23.9 Q 45 23.9 45 33.5 Q 45 43.1 32 43.1 Z" fill="rgba(20,16,26,0.17)"/><ellipse cx="32" cy="31" rx="8" ry="8" fill="#9c6238" stroke="#16181f" stroke-width="0.8"/><ellipse cx="32" cy="36.76" rx="1.7" ry="2.2" fill="#1d1a20"/><rect x="30" y="35.26" width="4" height="1.3" rx="0.6" fill="#1d1a20"/><ellipse cx="32" cy="30.6" rx="8.7" ry="8.7" fill="#1d1a20"/></g></g><g transform="translate(256 122) scale(2)"><ellipse cx="32" cy="45" rx="13" ry="4.4" fill="rgba(0,0,0,0.22)"/><g transform="rotate(90 32 33)"><line x1="28.6" y1="41" x2="28.6" y2="42.5" stroke="#16181f" stroke-width="4.4" stroke-linecap="round"/><line x1="28.6" y1="41" x2="28.6" y2="42.5" stroke="#9c6238" stroke-width="3" stroke-linecap="round"/><ellipse cx="28.6" cy="42.5" rx="3" ry="2.7" fill="#e2ddd2" stroke="#16181f" stroke-width="0.8"/><line x1="35.4" y1="43.5" x2="35.4" y2="47.5" stroke="#16181f" stroke-width="4.4" stroke-linecap="round"/><line x1="35.4" y1="43.5" x2="35.4" y2="47.5" stroke="#9c6238" stroke-width="3" stroke-linecap="round"/><ellipse cx="35.4" cy="47.5" rx="3" ry="2.7" fill="#e2ddd2" stroke="#16181f" stroke-width="0.8"/><line x1="21" y1="33" x2="18" y2="40" stroke="#16181f" stroke-width="5.800000000000001" stroke-linecap="round"/><line x1="21" y1="33" x2="18" y2="40" stroke="#9c6238" stroke-width="4.4" stroke-linecap="round"/><ellipse cx="18" cy="40" rx="2.4" ry="2.4" fill="#9c6238" stroke="#16181f" stroke-width="0.8"/><line x1="43" y1="33" x2="45" y2="44" stroke="#16181f" stroke-width="5.800000000000001" stroke-linecap="round"/><line x1="43" y1="33" x2="45" y2="44" stroke="#9c6238" stroke-width="4.4" stroke-linecap="round"/><ellipse cx="45" cy="44" rx="2.4" ry="2.4" fill="#9c6238" stroke="#16181f" stroke-width="0.8"/><ellipse cx="32" cy="39.5" rx="8" ry="5.2" fill="#374d63" stroke="#16181f" stroke-width="0.8"/><ellipse cx="32" cy="33.5" rx="13" ry="9.6" fill="#bf8a2e" stroke="#16181f" stroke-width="0.8"/><path d="M 32 23.9 Q 45 23.9 45 33.5 Q 45 43.1 32 43.1 Z" fill="rgba(20,16,26,0.17)"/><ellipse cx="32" cy="31" rx="8" ry="8" fill="#9c6238" stroke="#16181f" stroke-width="0.8"/><ellipse cx="32" cy="36.76" rx="1.7" ry="2.2" fill="#1d1a20"/><rect x="30" y="35.26" width="4" height="1.3" rx="0.6" fill="#1d1a20"/><ellipse cx="32" cy="30.6" rx="8.7" ry="8.7" fill="#1d1a20"/></g></g><g transform="translate(384 122) scale(2)"><ellipse cx="32" cy="45" rx="13" ry="4.4" fill="rgba(0,0,0,0.22)"/><g transform="rotate(90 32 33)"><line x1="29.5" y1="42.5" x2="29.5" y2="45.5" stroke="#16181f" stroke-width="4.4" stroke-linecap="round"/><line x1="29.5" y1="42.5" x2="29.5" y2="45.5" stroke="#9c6238" stroke-width="3" stroke-linecap="round"/><ellipse cx="29.5" cy="45.5" rx="3" ry="2.7" fill="#e2ddd2" stroke="#16181f" stroke-width="0.8"/><line x1="34.5" y1="42.5" x2="34.5" y2="45.5" stroke="#16181f" stroke-width="4.4" stroke-linecap="round"/><line x1="34.5" y1="42.5" x2="34.5" y2="45.5" stroke="#9c6238" stroke-width="3" stroke-linecap="round"/><ellipse cx="34.5" cy="45.5" rx="3" ry="2.7" fill="#e2ddd2" stroke="#16181f" stroke-width="0.8"/><line x1="21" y1="33" x2="18.5" y2="42" stroke="#16181f" stroke-width="5.800000000000001" stroke-linecap="round"/><line x1="21" y1="33" x2="18.5" y2="42" stroke="#9c6238" stroke-width="4.4" stroke-linecap="round"/><ellipse cx="18.5" cy="42" rx="2.4" ry="2.4" fill="#9c6238" stroke="#16181f" stroke-width="0.8"/><line x1="43" y1="33" x2="45.5" y2="42" stroke="#16181f" stroke-width="5.800000000000001" stroke-linecap="round"/><line x1="43" y1="33" x2="45.5" y2="42" stroke="#9c6238" stroke-width="4.4" stroke-linecap="round"/><ellipse cx="45.5" cy="42" rx="2.4" ry="2.4" fill="#9c6238" stroke="#16181f" stroke-width="0.8"/><ellipse cx="32" cy="39.5" rx="8" ry="5.2" fill="#374d63" stroke="#16181f" stroke-width="0.8"/><ellipse cx="32" cy="33.5" rx="13" ry="9.6" fill="#bf8a2e" stroke="#16181f" stroke-width="0.8"/><path d="M 32 23.9 Q 45 23.9 45 33.5 Q 45 43.1 32 43.1 Z" fill="rgba(20,16,26,0.17)"/><ellipse cx="32" cy="31" rx="8" ry="8" fill="#9c6238" stroke="#16181f" stroke-width="0.8"/><ellipse cx="32" cy="36.76" rx="1.7" ry="2.2" fill="#1d1a20"/><rect x="30" y="35.26" width="4" height="1.3" rx="0.6" fill="#1d1a20"/><ellipse cx="32" cy="30.6" rx="8.7" ry="8.7" fill="#1d1a20"/></g></g><g transform="translate(0 250) scale(2)"><ellipse cx="32" cy="45" rx="13" ry="4.4" fill="rgba(0,0,0,0.22)"/><g transform="rotate(-90 32 33)"><line x1="28.6" y1="43.5" x2="28.6" y2="47.5" stroke="#16181f" stroke-width="4.4" stroke-linecap="round"/><line x1="28.6" y1="43.5" x2="28.6" y2="47.5" stroke="#9c6238" stroke-width="3" stroke-linecap="round"/><ellipse cx="28.6" cy="47.5" rx="3" ry="2.7" fill="#e2ddd2" stroke="#16181f" stroke-width="0.8"/><line x1="35.4" y1="41" x2="35.4" y2="42.5" stroke="#16181f" stroke-width="4.4" stroke-linecap="round"/><line x1="35.4" y1="41" x2="35.4" y2="42.5" stroke="#9c6238" stroke-width="3" stroke-linecap="round"/><ellipse cx="35.4" cy="42.5" rx="3" ry="2.7" fill="#e2ddd2" stroke="#16181f" stroke-width="0.8"/><line x1="21" y1="33" x2="18" y2="44" stroke="#16181f" stroke-width="5.800000000000001" stroke-linecap="round"/><line x1="21" y1="33" x2="18" y2="44" stroke="#9c6238" stroke-width="4.4" stroke-linecap="round"/><ellipse cx="18" cy="44" rx="2.4" ry="2.4" fill="#9c6238" stroke="#16181f" stroke-width="0.8"/><line x1="43" y1="33" x2="45" y2="40" stroke="#16181f" stroke-width="5.800000000000001" stroke-linecap="round"/><line x1="43" y1="33" x2="45" y2="40" stroke="#9c6238" stroke-width="4.4" stroke-linecap="round"/><ellipse cx="45" cy="40" rx="2.4" ry="2.4" fill="#9c6238" stroke="#16181f" stroke-width="0.8"/><ellipse cx="32" cy="39.5" rx="8" ry="5.2" fill="#374d63" stroke="#16181f" stroke-width="0.8"/><ellipse cx="32" cy="33.5" rx="13" ry="9.6" fill="#bf8a2e" stroke="#16181f" stroke-width="0.8"/><path d="M 32 23.9 Q 45 23.9 45 33.5 Q 45 43.1 32 43.1 Z" fill="rgba(20,16,26,0.17)"/><ellipse cx="32" cy="31" rx="8" ry="8" fill="#9c6238" stroke="#16181f" stroke-width="0.8"/><ellipse cx="32" cy="36.76" rx="1.7" ry="2.2" fill="#1d1a20"/><rect x="30" y="35.26" width="4" height="1.3" rx="0.6" fill="#1d1a20"/><ellipse cx="32" cy="30.6" rx="8.7" ry="8.7" fill="#1d1a20"/></g></g><g transform="translate(128 250) scale(2)"><ellipse cx="32" cy="45" rx="13" ry="4.4" fill="rgba(0,0,0,0.22)"/><g transform="rotate(-90 32 33)"><line x1="29.5" y1="42.5" x2="29.5" y2="45.5" stroke="#16181f" stroke-width="4.4" stroke-linecap="round"/><line x1="29.5" y1="42.5" x2="29.5" y2="45.5" stroke="#9c6238" stroke-width="3" stroke-linecap="round"/><ellipse cx="29.5" cy="45.5" rx="3" ry="2.7" fill="#e2ddd2" stroke="#16181f" stroke-width="0.8"/><line x1="34.5" y1="42.5" x2="34.5" y2="45.5" stroke="#16181f" stroke-width="4.4" stroke-linecap="round"/><line x1="34.5" y1="42.5" x2="34.5" y2="45.5" stroke="#9c6238" stroke-width="3" stroke-linecap="round"/><ellipse cx="34.5" cy="45.5" rx="3" ry="2.7" fill="#e2ddd2" stroke="#16181f" stroke-width="0.8"/><line x1="21" y1="33" x2="18.5" y2="42" stroke="#16181f" stroke-width="5.800000000000001" stroke-linecap="round"/><line x1="21" y1="33" x2="18.5" y2="42" stroke="#9c6238" stroke-width="4.4" stroke-linecap="round"/><ellipse cx="18.5" cy="42" rx="2.4" ry="2.4" fill="#9c6238" stroke="#16181f" stroke-width="0.8"/><line x1="43" y1="33" x2="45.5" y2="42" stroke="#16181f" stroke-width="5.800000000000001" stroke-linecap="round"/><line x1="43" y1="33" x2="45.5" y2="42" stroke="#9c6238" stroke-width="4.4" stroke-linecap="round"/><ellipse cx="45.5" cy="42" rx="2.4" ry="2.4" fill="#9c6238" stroke="#16181f" stroke-width="0.8"/><ellipse cx="32" cy="39.5" rx="8" ry="5.2" fill="#374d63" stroke="#16181f" stroke-width="0.8"/><ellipse cx="32" cy="33.5" rx="13" ry="9.6" fill="#bf8a2e" stroke="#16181f" stroke-width="0.8"/><path d="M 32 23.9 Q 45 23.9 45 33.5 Q 45 43.1 32 43.1 Z" fill="rgba(20,16,26,0.17)"/><ellipse cx="32" cy="31" rx="8" ry="8" fill="#9c6238" stroke="#16181f" stroke-width="0.8"/><ellipse cx="32" cy="36.76" rx="1.7" ry="2.2" fill="#1d1a20"/><rect x="30" y="35.26" width="4" height="1.3" rx="0.6" fill="#1d1a20"/><ellipse cx="32" cy="30.6" rx="8.7" ry="8.7" fill="#1d1a20"/></g></g><g transform="translate(256 250) scale(2)"><ellipse cx="32" cy="45" rx="13" ry="4.4" fill="rgba(0,0,0,0.22)"/><g transform="rotate(-90 32 33)"><line x1="28.6" y1="41" x2="28.6" y2="42.5" stroke="#16181f" stroke-width="4.4" stroke-linecap="round"/><line x1="28.6" y1="41" x2="28.6" y2="42.5" stroke="#9c6238" stroke-width="3" stroke-linecap="round"/><ellipse cx="28.6" cy="42.5" rx="3" ry="2.7" fill="#e2ddd2" stroke="#16181f" stroke-width="0.8"/><line x1="35.4" y1="43.5" x2="35.4" y2="47.5" stroke="#16181f" stroke-width="4.4" stroke-linecap="round"/><line x1="35.4" y1="43.5" x2="35.4" y2="47.5" stroke="#9c6238" stroke-width="3" stroke-linecap="round"/><ellipse cx="35.4" cy="47.5" rx="3" ry="2.7" fill="#e2ddd2" stroke="#16181f" stroke-width="0.8"/><line x1="21" y1="33" x2="18" y2="40" stroke="#16181f" stroke-width="5.800000000000001" stroke-linecap="round"/><line x1="21" y1="33" x2="18" y2="40" stroke="#9c6238" stroke-width="4.4" stroke-linecap="round"/><ellipse cx="18" cy="40" rx="2.4" ry="2.4" fill="#9c6238" stroke="#16181f" stroke-width="0.8"/><line x1="43" y1="33" x2="45" y2="44" stroke="#16181f" stroke-width="5.800000000000001" stroke-linecap="round"/><line x1="43" y1="33" x2="45" y2="44" stroke="#9c6238" stroke-width="4.4" stroke-linecap="round"/><ellipse cx="45" cy="44" rx="2.4" ry="2.4" fill="#9c6238" stroke="#16181f" stroke-width="0.8"/><ellipse cx="32" cy="39.5" rx="8" ry="5.2" fill="#374d63" stroke="#16181f" stroke-width="0.8"/><ellipse cx="32" cy="33.5" rx="13" ry="9.6" fill="#bf8a2e" stroke="#16181f" stroke-width="0.8"/><path d="M 32 23.9 Q 45 23.9 45 33.5 Q 45 43.1 32 43.1 Z" fill="rgba(20,16,26,0.17)"/><ellipse cx="32" cy="31" rx="8" ry="8" fill="#9c6238" stroke="#16181f" stroke-width="0.8"/><ellipse cx="32" cy="36.76" rx="1.7" ry="2.2" fill="#1d1a20"/><rect x="30" y="35.26" width="4" height="1.3" rx="0.6" fill="#1d1a20"/><ellipse cx="32" cy="30.6" rx="8.7" ry="8.7" fill="#1d1a20"/></g></g><g transform="translate(384 250) scale(2)"><ellipse cx="32" cy="45" rx="13" ry="4.4" fill="rgba(0,0,0,0.22)"/><g transform="rotate(-90 32 33)"><line x1="29.5" y1="42.5" x2="29.5" y2="45.5" stroke="#16181f" stroke-width="4.4" stroke-linecap="round"/><line x1="29.5" y1="42.5" x2="29.5" y2="45.5" stroke="#9c6238" stroke-width="3" stroke-linecap="round"/><ellipse cx="29.5" cy="45.5" rx="3" ry="2.7" fill="#e2ddd2" stroke="#16181f" stroke-width="0.8"/><line x1="34.5" y1="42.5" x2="34.5" y2="45.5" stroke="#16181f" stroke-width="4.4" stroke-linecap="round"/><line x1="34.5" y1="42.5" x2="34.5" y2="45.5" stroke="#9c6238" stroke-width="3" stroke-linecap="round"/><ellipse cx="34.5" cy="45.5" rx="3" ry="2.7" fill="#e2ddd2" stroke="#16181f" stroke-width="0.8"/><line x1="21" y1="33" x2="18.5" y2="42" stroke="#16181f" stroke-width="5.800000000000001" stroke-linecap="round"/><line x1="21" y1="33" x2="18.5" y2="42" stroke="#9c6238" stroke-width="4.4" stroke-linecap="round"/><ellipse cx="18.5" cy="42" rx="2.4" ry="2.4" fill="#9c6238" stroke="#16181f" stroke-width="0.8"/><line x1="43" y1="33" x2="45.5" y2="42" stroke="#16181f" stroke-width="5.800000000000001" stroke-linecap="round"/><line x1="43" y1="33" x2="45.5" y2="42" stroke="#9c6238" stroke-width="4.4" stroke-linecap="round"/><ellipse cx="45.5" cy="42" rx="2.4" ry="2.4" fill="#9c6238" stroke="#16181f" stroke-width="0.8"/><ellipse cx="32" cy="39.5" rx="8" ry="5.2" fill="#374d63" stroke="#16181f" stroke-width="0.8"/><ellipse cx="32" cy="33.5" rx="13" ry="9.6" fill="#bf8a2e" stroke="#16181f" stroke-width="0.8"/><path d="M 32 23.9 Q 45 23.9 45 33.5 Q 45 43.1 32 43.1 Z" fill="rgba(20,16,26,0.17)"/><ellipse cx="32" cy="31" rx="8" ry="8" fill="#9c6238" stroke="#16181f" stroke-width="0.8"/><ellipse cx="32" cy="36.76" rx="1.7" ry="2.2" fill="#1d1a20"/><rect x="30" y="35.26" width="4" height="1.3" rx="0.6" fill="#1d1a20"/><ellipse cx="32" cy="30.6" rx="8.7" ry="8.7" fill="#1d1a20"/></g></g><g transform="translate(0 378) scale(2)"><ellipse cx="32" cy="45" rx="13" ry="4.4" fill="rgba(0,0,0,0.22)"/><g transform="rotate(-180 32 33)"><line x1="28.6" y1="43.5" x2="28.6" y2="47.5" stroke="#16181f" stroke-width="4.4" stroke-linecap="round"/><line x1="28.6" y1="43.5" x2="28.6" y2="47.5" stroke="#9c6238" stroke-width="3" stroke-linecap="round"/><ellipse cx="28.6" cy="47.5" rx="3" ry="2.7" fill="#e2ddd2" stroke="#16181f" stroke-width="0.8"/><line x1="35.4" y1="41" x2="35.4" y2="42.5" stroke="#16181f" stroke-width="4.4" stroke-linecap="round"/><line x1="35.4" y1="41" x2="35.4" y2="42.5" stroke="#9c6238" stroke-width="3" stroke-linecap="round"/><ellipse cx="35.4" cy="42.5" rx="3" ry="2.7" fill="#e2ddd2" stroke="#16181f" stroke-width="0.8"/><line x1="21" y1="33" x2="18" y2="44" stroke="#16181f" stroke-width="5.800000000000001" stroke-linecap="round"/><line x1="21" y1="33" x2="18" y2="44" stroke="#9c6238" stroke-width="4.4" stroke-linecap="round"/><ellipse cx="18" cy="44" rx="2.4" ry="2.4" fill="#9c6238" stroke="#16181f" stroke-width="0.8"/><line x1="43" y1="33" x2="45" y2="40" stroke="#16181f" stroke-width="5.800000000000001" stroke-linecap="round"/><line x1="43" y1="33" x2="45" y2="40" stroke="#9c6238" stroke-width="4.4" stroke-linecap="round"/><ellipse cx="45" cy="40" rx="2.4" ry="2.4" fill="#9c6238" stroke="#16181f" stroke-width="0.8"/><ellipse cx="32" cy="39.5" rx="8" ry="5.2" fill="#374d63" stroke="#16181f" stroke-width="0.8"/><ellipse cx="32" cy="33.5" rx="13" ry="9.6" fill="#bf8a2e" stroke="#16181f" stroke-width="0.8"/><path d="M 32 23.9 Q 45 23.9 45 33.5 Q 45 43.1 32 43.1 Z" fill="rgba(20,16,26,0.17)"/><ellipse cx="32" cy="31" rx="8" ry="8" fill="#9c6238" stroke="#16181f" stroke-width="0.8"/><ellipse cx="32" cy="36.76" rx="1.7" ry="2.2" fill="#1d1a20"/><rect x="30" y="35.26" width="4" height="1.3" rx="0.6" fill="#1d1a20"/><ellipse cx="32" cy="30.6" rx="8.7" ry="8.7" fill="#1d1a20"/></g></g><g transform="translate(128 378) scale(2)"><ellipse cx="32" cy="45" rx="13" ry="4.4" fill="rgba(0,0,0,0.22)"/><g transform="rotate(-180 32 33)"><line x1="29.5" y1="42.5" x2="29.5" y2="45.5" stroke="#16181f" stroke-width="4.4" stroke-linecap="round"/><line x1="29.5" y1="42.5" x2="29.5" y2="45.5" stroke="#9c6238" stroke-width="3" stroke-linecap="round"/><ellipse cx="29.5" cy="45.5" rx="3" ry="2.7" fill="#e2ddd2" stroke="#16181f" stroke-width="0.8"/><line x1="34.5" y1="42.5" x2="34.5" y2="45.5" stroke="#16181f" stroke-width="4.4" stroke-linecap="round"/><line x1="34.5" y1="42.5" x2="34.5" y2="45.5" stroke="#9c6238" stroke-width="3" stroke-linecap="round"/><ellipse cx="34.5" cy="45.5" rx="3" ry="2.7" fill="#e2ddd2" stroke="#16181f" stroke-width="0.8"/><line x1="21" y1="33" x2="18.5" y2="42" stroke="#16181f" stroke-width="5.800000000000001" stroke-linecap="round"/><line x1="21" y1="33" x2="18.5" y2="42" stroke="#9c6238" stroke-width="4.4" stroke-linecap="round"/><ellipse cx="18.5" cy="42" rx="2.4" ry="2.4" fill="#9c6238" stroke="#16181f" stroke-width="0.8"/><line x1="43" y1="33" x2="45.5" y2="42" stroke="#16181f" stroke-width="5.800000000000001" stroke-linecap="round"/><line x1="43" y1="33" x2="45.5" y2="42" stroke="#9c6238" stroke-width="4.4" stroke-linecap="round"/><ellipse cx="45.5" cy="42" rx="2.4" ry="2.4" fill="#9c6238" stroke="#16181f" stroke-width="0.8"/><ellipse cx="32" cy="39.5" rx="8" ry="5.2" fill="#374d63" stroke="#16181f" stroke-width="0.8"/><ellipse cx="32" cy="33.5" rx="13" ry="9.6" fill="#bf8a2e" stroke="#16181f" stroke-width="0.8"/><path d="M 32 23.9 Q 45 23.9 45 33.5 Q 45 43.1 32 43.1 Z" fill="rgba(20,16,26,0.17)"/><ellipse cx="32" cy="31" rx="8" ry="8" fill="#9c6238" stroke="#16181f" stroke-width="0.8"/><ellipse cx="32" cy="36.76" rx="1.7" ry="2.2" fill="#1d1a20"/><rect x="30" y="35.26" width="4" height="1.3" rx="0.6" fill="#1d1a20"/><ellipse cx="32" cy="30.6" rx="8.7" ry="8.7" fill="#1d1a20"/></g></g><g transform="translate(256 378) scale(2)"><ellipse cx="32" cy="45" rx="13" ry="4.4" fill="rgba(0,0,0,0.22)"/><g transform="rotate(-180 32 33)"><line x1="28.6" y1="41" x2="28.6" y2="42.5" stroke="#16181f" stroke-width="4.4" stroke-linecap="round"/><line x1="28.6" y1="41" x2="28.6" y2="42.5" stroke="#9c6238" stroke-width="3" stroke-linecap="round"/><ellipse cx="28.6" cy="42.5" rx="3" ry="2.7" fill="#e2ddd2" stroke="#16181f" stroke-width="0.8"/><line x1="35.4" y1="43.5" x2="35.4" y2="47.5" stroke="#16181f" stroke-width="4.4" stroke-linecap="round"/><line x1="35.4" y1="43.5" x2="35.4" y2="47.5" stroke="#9c6238" stroke-width="3" stroke-linecap="round"/><ellipse cx="35.4" cy="47.5" rx="3" ry="2.7" fill="#e2ddd2" stroke="#16181f" stroke-width="0.8"/><line x1="21" y1="33" x2="18" y2="40" stroke="#16181f" stroke-width="5.800000000000001" stroke-linecap="round"/><line x1="21" y1="33" x2="18" y2="40" stroke="#9c6238" stroke-width="4.4" stroke-linecap="round"/><ellipse cx="18" cy="40" rx="2.4" ry="2.4" fill="#9c6238" stroke="#16181f" stroke-width="0.8"/><line x1="43" y1="33" x2="45" y2="44" stroke="#16181f" stroke-width="5.800000000000001" stroke-linecap="round"/><line x1="43" y1="33" x2="45" y2="44" stroke="#9c6238" stroke-width="4.4" stroke-linecap="round"/><ellipse cx="45" cy="44" rx="2.4" ry="2.4" fill="#9c6238" stroke="#16181f" stroke-width="0.8"/><ellipse cx="32" cy="39.5" rx="8" ry="5.2" fill="#374d63" stroke="#16181f" stroke-width="0.8"/><ellipse cx="32" cy="33.5" rx="13" ry="9.6" fill="#bf8a2e" stroke="#16181f" stroke-width="0.8"/><path d="M 32 23.9 Q 45 23.9 45 33.5 Q 45 43.1 32 43.1 Z" fill="rgba(20,16,26,0.17)"/><ellipse cx="32" cy="31" rx="8" ry="8" fill="#9c6238" stroke="#16181f" stroke-width="0.8"/><ellipse cx="32" cy="36.76" rx="1.7" ry="2.2" fill="#1d1a20"/><rect x="30" y="35.26" width="4" height="1.3" rx="0.6" fill="#1d1a20"/><ellipse cx="32" cy="30.6" rx="8.7" ry="8.7" fill="#1d1a20"/></g></g><g transform="translate(384 378) scale(2)"><ellipse cx="32" cy="45" rx="13" ry="4.4" fill="rgba(0,0,0,0.22)"/><g transform="rotate(-180 32 33)"><line x1="29.5" y1="42.5" x2="29.5" y2="45.5" stroke="#16181f" stroke-width="4.4" stroke-linecap="round"/><line x1="29.5" y1="42.5" x2="29.5" y2="45.5" stroke="#9c6238" stroke-width="3" stroke-linecap="round"/><ellipse cx="29.5" cy="45.5" rx="3" ry="2.7" fill="#e2ddd2" stroke="#16181f" stroke-width="0.8"/><line x1="34.5" y1="42.5" x2="34.5" y2="45.5" stroke="#16181f" stroke-width="4.4" stroke-linecap="round"/><line x1="34.5" y1="42.5" x2="34.5" y2="45.5" stroke="#9c6238" stroke-width="3" stroke-linecap="round"/><ellipse cx="34.5" cy="45.5" rx="3" ry="2.7" fill="#e2ddd2" stroke="#16181f" stroke-width="0.8"/><line x1="21" y1="33" x2="18.5" y2="42" stroke="#16181f" stroke-width="5.800000000000001" stroke-linecap="round"/><line x1="21" y1="33" x2="18.5" y2="42" stroke="#9c6238" stroke-width="4.4" stroke-linecap="round"/><ellipse cx="18.5" cy="42" rx="2.4" ry="2.4" fill="#9c6238" stroke="#16181f" stroke-width="0.8"/><line x1="43" y1="33" x2="45.5" y2="42" stroke="#16181f" stroke-width="5.800000000000001" stroke-linecap="round"/><line x1="43" y1="33" x2="45.5" y2="42" stroke="#9c6238" stroke-width="4.4" stroke-linecap="round"/><ellipse cx="45.5" cy="42" rx="2.4" ry="2.4" fill="#9c6238" stroke="#16181f" stroke-width="0.8"/><ellipse cx="32" cy="39.5" rx="8" ry="5.2" fill="#374d63" stroke="#16181f" stroke-width="0.8"/><ellipse cx="32" cy="33.5" rx="13" ry="9.6" fill="#bf8a2e" stroke="#16181f" stroke-width="0.8"/><path d="M 32 23.9 Q 45 23.9 45 33.5 Q 45 43.1 32 43.1 Z" fill="rgba(20,16,26,0.17)"/><ellipse cx="32" cy="31" rx="8" ry="8" fill="#9c6238" stroke="#16181f" stroke-width="0.8"/><ellipse cx="32" cy="36.76" rx="1.7" ry="2.2" fill="#1d1a20"/><rect x="30" y="35.26" width="4" height="1.3" rx="0.6" fill="#1d1a20"/><ellipse cx="32" cy="30.6" rx="8.7" ry="8.7" fill="#1d1a20"/></g></g></svg>