<svg xmlns="http://www.w3.org/2000/svg" width="120" height="150" viewBox="0 0 120 150"><ellipse cx="60" cy="132" rx="44" ry="10" fill="#000" opacity="0.2"/><rect x="18" y="28" width="18" height="36" rx="8" fill="#2d2b28"/><rect x="84" y="28" width="18" height="36" rx="8" fill="#2d2b28"/><rect x="18" y="88" width="18" height="36" rx="8" fill="#2d2b28"/><rect x="84" y="88" width="18" height="36" rx="8" fill="#2d2b28"/><path d="M37 32h46c9 0 17 10 17 22v44c0 16-11 28-40 28S20 114 20 98V54c0-12 8-22 17-22z" fill="#6f8a58" stroke="#30372b" stroke-width="5"/><rect x="42" y="50" width="36" height="48" rx="13" fill="#9aae73" stroke="#30372b" stroke-width="4"/><rect x="39" y="15" width="42" height="16" rx="7" fill="#3c3b36"/><path d="M26 72h68M37 122h46" stroke="#30372b" stroke-width="5" stroke-linecap="round"/></svg>