<svg xmlns="http://www.w3.org/2000/svg" width="144" height="260" viewBox="0 0 144 260"><ellipse cx="72" cy="238" rx="48" ry="13" fill="#000" opacity="0.22"/><path d="M28 46C32 22 48 12 72 12s40 10 44 34l12 124c4 44-16 70-56 70s-60-26-56-70z" fill="#6f7c83" stroke="#26313a" stroke-width="6"/><path d="M42 62c5-18 15-28 30-28s25 10 30 28l4 30H38z" fill="#c7dddf" stroke="#26313a" stroke-width="4"/><path d="M37 143h70l-8 44H45z" fill="#d7e2e1" stroke="#26313a" stroke-width="4"/><path d="M43 207h58" stroke="#26313a" stroke-width="5"/><rect x="35" y="26" width="20" height="10" rx="4" fill="#f4ead7"/><rect x="89" y="26" width="20" height="10" rx="4" fill="#f4ead7"/><rect x="36" y="222" width="18" height="8" rx="3" fill="#b66d55"/><rect x="90" y="222" width="18" height="8" rx="3" fill="#b66d55"/><rect x="12" y="96" width="14" height="48" rx="6" fill="#26313a"/><rect x="118" y="96" width="14" height="48" rx="6" fill="#26313a"/></svg>