<svg xmlns="http://www.w3.org/2000/svg" width="132" height="246" viewBox="0 0 132 246"><ellipse cx="66" cy="225" rx="46" ry="12" fill="#000" opacity="0.22"/><path d="M25 58C28 28 43 12 66 12s38 16 41 46l9 102c3 42-13 66-50 66s-53-24-50-66z" fill="#9b3e35" stroke="#2b1715" stroke-width="6"/><path d="M39 70c4-20 14-32 27-32s23 12 27 32l3 28H36z" fill="#9fcbd3" stroke="#2b1715" stroke-width="4"/><path d="M36 142h60l-10 38H46z" fill="#d8e4e2" stroke="#2b1715" stroke-width="4"/><path d="M32 203c20 12 48 12 68 0" fill="none" stroke="#2b1715" stroke-width="5"/><rect x="33" y="28" width="18" height="9" rx="4" fill="#f4ead7"/><rect x="81" y="28" width="18" height="9" rx="4" fill="#f4ead7"/><rect x="32" y="210" width="16" height="8" rx="3" fill="#e06d5f"/><rect x="84" y="210" width="16" height="8" rx="3" fill="#e06d5f"/><path d="M22 94h-10M110 94h10" stroke="#2b1715" stroke-width="6" stroke-linecap="round"/></svg>