<svg xmlns="http://www.w3.org/2000/svg" viewBox="0 0 128 128">
  <title>Top down front curb and street edge</title>
  <defs>
    <linearGradient id="road" x1="0" y1="0" x2="1" y2="1">
      <stop stop-color="#313a42"/>
      <stop offset="0.58" stop-color="#202a32"/>
      <stop offset="1" stop-color="#121a21"/>
    </linearGradient>
    <linearGradient id="curb" x1="0" y1="0" x2="0" y2="1">
      <stop stop-color="#aeb8bc"/>
      <stop offset="0.48" stop-color="#69777d"/>
      <stop offset="1" stop-color="#354249"/>
    </linearGradient>
    <filter id="shadow"><feDropShadow dx="0" dy="3" stdDeviation="2" flood-color="#030609" flood-opacity="0.55"/></filter>
  </defs>
  <rect width="128" height="128" fill="url(#road)"/>
  <path d="M0 18H128M0 47H128M0 79H128M0 109H128" stroke="#51606a" stroke-opacity="0.16" stroke-width="2"/>
  <path d="M8 31l18-5m25 8l22-6m22 8l17-5M17 91l24-6m28 10l26-7" stroke="#9ba7ac" stroke-opacity="0.12" stroke-width="3" stroke-linecap="round"/>
  <g filter="url(#shadow)">
    <rect x="0" y="48" width="128" height="28" fill="url(#curb)"/>
    <path d="M0 49H128M0 74H128" stroke="#d8dfe1" stroke-opacity="0.45" stroke-width="3"/>
    <path d="M18 50V74M51 50V74M84 50V74M116 50V74" stroke="#26343b" stroke-opacity="0.55" stroke-width="2"/>
  </g>
  <path d="M0 93H128" stroke="#d5b862" stroke-opacity="0.55" stroke-width="4" stroke-dasharray="24 14"/>
</svg>
